<?xml version="1.0" encoding="utf-8"?><svg xmlns="http://www.w3.org/2000/svg" xmlns:xlink="http://www.w3.org/1999/xlink"><symbol viewBox="0 0 18 11" id="chevron-down" xmlns="http://www.w3.org/2000/svg"><path fill-rule="evenodd" clip-rule="evenodd" d="M16 0l1.414 1.414-8.707 8.707L0 1.414 1.414 0l7.293 7.293L16 0z"/></symbol><symbol viewBox="0 0 24 40" id="chevron-left" xmlns="http://www.w3.org/2000/svg"><path fill-rule="evenodd" clip-rule="evenodd" d="M7.182 20l16.41 16.409-3.183 3.182L.82 20 20.408.409l3.182 3.182L7.182 20z"/></symbol><symbol viewBox="0 0 23 40" id="chevron-right" xmlns="http://www.w3.org/2000/svg"><path fill-rule="evenodd" clip-rule="evenodd" d="M16.411 20L.002 36.409l3.182 3.182L22.775 20 3.185.409.001 3.59 16.412 20z"/></symbol><symbol viewBox="0 0 18 13" id="custom-check" xmlns="http://www.w3.org/2000/svg"><path fill-rule="evenodd" clip-rule="evenodd" d="M17.708.293a1 1 0 0 1 0 1.414l-11 11a1 1 0 0 1-1.415 0l-5-5a1 1 0 0 1 1.415-1.414L6 10.586 16.294.293a1 1 0 0 1 1.414 0z"/></symbol><symbol viewBox="0 0 45 45" id="debit-card" xmlns="http://www.w3.org/2000/svg"><path d="M37.5 7.946V3.75A3.755 3.755 0 0 0 33.75 0h-30A3.755 3.755 0 0 0 0 3.75v16.5a3.743 3.743 0 0 0 3.363 3.711l2.82 7.319a3.75 3.75 0 0 0 4.847 2.15l17.605-6.781a10.842 10.842 0 0 0 .934 9.626l.431.69v7.285c0 .414.336.75.75.75h13.5a.75.75 0 0 0 .75-.75V19.493a9.815 9.815 0 0 0-2.873-6.913L37.5 7.945zm0 4.485l2.276 5.909a2.25 2.25 0 0 1-1.291 2.907l-1.301.503a3.75 3.75 0 0 0 .316-1.5v-7.82zm-36 7.819V3.75A2.25 2.25 0 0 1 3.75 1.5h30A2.25 2.25 0 0 1 36 3.75v4.767h-.007l.007.017V20.25c-.006.13-.023.26-.051.389l-6.87-6.871a4.001 4.001 0 0 0-5.775 5.533l2.929 3.199H3.75a2.25 2.25 0 0 1-2.25-2.25zM11.108 24l-5.333 2.053L4.986 24h6.122zm-.618 8.03a2.25 2.25 0 0 1-2.908-1.29l-1.266-3.29L15.27 24v-.005h12.339l.974 1.063-18.092 6.973zM43.5 43.5h-12v-6h12v6zm0-7.5H31.166l-.325-.52a9.353 9.353 0 0 1-.19-9.605.75.75 0 0 0-.098-.879l-6.146-6.705a2.5 2.5 0 0 1 3.611-3.46l11.952 11.95 1.06-1.061-2.775-2.775.77-.3a3.75 3.75 0 0 0 2.15-4.845l-2.539-6.592 2.43 2.434a8.306 8.306 0 0 1 2.434 5.851V36z"/><path d="M8.55 10.5a1.95 1.95 0 0 0 1.95-1.95v-3.6A1.95 1.95 0 0 0 8.55 3h-3.6A1.95 1.95 0 0 0 3 4.95v3.6a1.95 1.95 0 0 0 1.95 1.95h3.6zM4.5 8.55V7.5H6V6H4.5V4.95a.45.45 0 0 1 .45-.45h3.6a.45.45 0 0 1 .45.45V6H7.5v1.5H9v1.05a.45.45 0 0 1-.45.45h-3.6a.45.45 0 0 1-.45-.45zm-.75 4.2h3v1.5h-3v-1.5zm0 4.5h3v1.5h-3v-1.5zm13.5 0h3v1.5h-3v-1.5zm-9-4.5h3v1.5h-3v-1.5zm4.5 0h3v1.5h-3v-1.5zm4.5 0h3v1.5h-3v-1.5zm14.25-9H33V6h-1.5V3.75zm-3 0H30V6h-1.5V3.75zm-3 0H27V6h-1.5V3.75zm-3 0H24V6h-1.5V3.75zM33 39h1.5v1.5H33V39z"/></symbol><symbol viewBox="0 0 64 64" id="factory" xmlns="http://www.w3.org/2000/svg"><g clip-path="url(#fa)"><path d="M63.063 62.125h-3.071V49.239a2.935 2.935 0 0 0 1.002-2.209 2.945 2.945 0 0 0-2.941-2.941h-6.134l-.947-15.153a.937.937 0 0 0-.936-.88h-4.008a.938.938 0 0 0-.935.88l-.948 15.153H41.9l-.947-15.153a.938.938 0 0 0-.936-.88h-4.008a.937.937 0 0 0-.936.88l-.947 15.153H31.88l-.947-15.153a.937.937 0 0 0-.936-.88h-4.008a.937.937 0 0 0-.936.88l-.947 15.153h-2.611l-.58-26.138a.937.937 0 0 0-.938-.917h-6.012a.937.937 0 0 0-.937.917l-.67 30.146H4.946a2.945 2.945 0 0 0-2.942 2.941c0 .88.388 1.67 1.002 2.21v8.877H.938a.938.938 0 0 0 0 1.875h62.124a.938.938 0 0 0 0-1.875zm-50.796-10.02H8.954a.938.938 0 0 0 0 1.875h3.272l-.181 8.145H4.88v-8.147l.064.002a.938.938 0 0 0 0-1.875 1.068 1.068 0 0 1 0-2.133h7.37l-.048 2.133zM46.91 29.932h2.247l.884 14.157h-4.016l.885-14.157zm-10.02 0h2.246l.885 14.157h-4.016l.885-14.157zm-10.02 0h2.246L30 44.088h-4.016l.885-14.157zM16.032 62.124H13.92l.96-43.216h4.179l.56 25.18h-1.647a2.945 2.945 0 0 0-2.942 2.941c0 .88.389 1.67 1.002 2.209v12.886zm42.02-14.028h-2.004a.938.938 0 0 0 0 1.875h2.005l.064-.002v12.155h-40.21V49.97l.065.002h34.07a.938.938 0 0 0 0-1.875h-34.07a1.068 1.068 0 0 1-1.067-1.067c0-.588.479-1.066 1.067-1.066h40.08a1.068 1.068 0 0 1 0 2.133zM52.04 0c-2.824 0-5.516.986-7.669 2.792a8.913 8.913 0 0 0-5.357-1.79 8.94 8.94 0 0 0-6.272 2.572 6.946 6.946 0 0 0-2.746-.568 6.952 6.952 0 0 0-6.362 4.167 4.26 4.26 0 0 0-1.153-.159 4.44 4.44 0 0 0-4.197 3.023 2.945 2.945 0 0 0-3.254 2.924.938.938 0 0 0 1.875 0c0-.587.479-1.066 1.067-1.066.186 0 .368.053.542.157a.938.938 0 0 0 1.417-.748 2.566 2.566 0 0 1 2.55-2.415c.426 0 .846.115 1.25.343a.938.938 0 0 0 1.366-.577 5.074 5.074 0 0 1 4.899-3.774c.87 0 1.732.228 2.492.658.389.22.88.135 1.171-.203a7.074 7.074 0 0 1 5.355-2.459 7.06 7.06 0 0 1 4.753 1.845.938.938 0 0 0 1.281-.018 10.031 10.031 0 0 1 6.992-2.829c5.561 0 10.085 4.524 10.085 10.085 0 5.56-4.524 10.084-10.085 10.084a10.089 10.089 0 0 1-8.857-5.26.937.937 0 0 0-1.215-.403 7.014 7.014 0 0 1-2.954.653 7.074 7.074 0 0 1-5.355-2.458.938.938 0 0 0-1.17-.204 5.079 5.079 0 0 1-2.493.658 5.04 5.04 0 0 1-4.022-1.99.938.938 0 0 0-.739-.366h-.004a.938.938 0 0 0-.738.359 2.55 2.55 0 0 1-2.012.995.938.938 0 0 0 0 1.875c.993 0 1.938-.332 2.708-.934a6.886 6.886 0 0 0 4.807 1.936c.944 0 1.88-.195 2.747-.568a8.94 8.94 0 0 0 6.271 2.572c1.01 0 2-.17 2.951-.505A11.961 11.961 0 0 0 52.04 23.92c6.595 0 11.96-5.365 11.96-11.96C64 5.366 58.635 0 52.04 0z"/><path d="M23.984 52.105a.937.937 0 0 0-.938.937v2.004a.938.938 0 0 0 1.875 0v-2.004a.938.938 0 0 0-.937-.937zm4.008 0a.938.938 0 0 0-.938.937v2.004a.938.938 0 0 0 1.876 0v-2.004a.937.937 0 0 0-.938-.937zm4.008 0a.937.937 0 0 0-.938.937v2.004a.938.938 0 0 0 1.875 0v-2.004a.937.937 0 0 0-.937-.937zm4.008 0a.937.937 0 0 0-.938.937v2.004a.938.938 0 0 0 1.876 0v-2.004a.937.937 0 0 0-.938-.937zm4.008 0a.938.938 0 0 0-.937.937v2.004a.938.938 0 0 0 1.875 0v-2.004a.937.937 0 0 0-.938-.937zm4.008 0a.938.938 0 0 0-.937.937v2.004a.938.938 0 0 0 1.875 0v-2.004a.937.937 0 0 0-.938-.937zm4.008 0a.937.937 0 0 0-.937.937v2.004a.938.938 0 0 0 1.875 0v-2.004a.938.938 0 0 0-.938-.937zm4.008 0a.937.937 0 0 0-.937.937v2.004a.938.938 0 0 0 1.875 0v-2.004a.938.938 0 0 0-.938-.937z"/></g><defs><clipPath id="fa"><path d="M0 0h64v64H0z"/></clipPath></defs></symbol><symbol viewBox="0 0 33 32" id="fb" xmlns="http://www.w3.org/2000/svg"><path fill-rule="evenodd" clip-rule="evenodd" d="M16.56 0C7.755 0 .62 6.95.62 15.522c0 8.573 7.136 15.523 15.94 15.523 8.803 0 15.94-6.95 15.94-15.523C32.5 6.95 25.363 0 16.56 0zm1.66 16.204v8.445h-3.587v-8.444H12.84v-2.91h1.793v-1.748c0-2.374 1.012-3.786 3.888-3.786h2.394v2.91H19.42c-1.12 0-1.194.408-1.194 1.167l-.004 1.456h2.711l-.317 2.91H18.22z"/></symbol><symbol viewBox="0 0 48 64" id="fire" xmlns="http://www.w3.org/2000/svg"><path d="M47.908 38.099l-.046-.627c-.733-9.544-5.177-15.526-9.097-20.804C35.135 11.782 32 7.562 32 1.336A1.335 1.335 0 0 0 29.89.25c-5.887 4.213-10.8 11.315-12.516 18.09-1.191 4.718-1.349 10.02-1.371 13.523-5.437-1.161-6.67-9.295-6.682-9.383a1.34 1.34 0 0 0-.694-.99 1.327 1.327 0 0 0-1.208-.022c-.286.138-6.999 3.55-7.39 17.171A22.54 22.54 0 0 0 .001 40C0 53.234 10.767 64 24 64c13.233 0 23.999-10.767 23.999-24 0-.663-.046-1.283-.091-1.901zM24 61.333c-4.411 0-8-3.822-8-8.521 0-.16-.001-.322.01-.52.054-1.982.43-3.334.843-4.234.773 1.661 2.157 3.188 4.402 3.188.737 0 1.334-.596 1.334-1.333 0-1.898.039-4.088.511-6.065.421-1.754 1.426-3.617 2.7-5.112.566 1.94 1.67 3.51 2.748 5.043 1.543 2.193 3.138 4.46 3.418 8.325.017.23.034.46.034.707 0 4.7-3.589 8.522-8 8.522zm8.426-1.742c1.384-1.887 2.24-4.22 2.24-6.78 0-.313-.02-.605-.058-1.15-.317-4.353-2.209-7.043-3.88-9.417-1.422-2.02-2.65-3.766-2.65-6.243a1.333 1.333 0 0 0-2.137-1.064c-2.557 1.933-4.69 5.185-5.434 8.29-.38 1.593-.513 3.315-.56 4.732-.925-.995-1.211-2.838-1.214-2.863a1.336 1.336 0 0 0-1.93-1.007c-.335.172-3.287 1.865-3.456 8.091-.012.211-.013.422-.013.632 0 2.56.856 4.892 2.24 6.78C7.991 56.316 2.668 48.771 2.668 40c0-.4-.002-.798.026-1.242.229-7.992 2.786-11.956 4.455-13.704 1.164 4.166 4.214 9.613 10.185 9.613.737 0 1.333-.596 1.333-1.334 0-4.462.1-9.618 1.293-14.339 1.354-5.349 5.064-11.124 9.541-15.034.744 5.71 3.854 9.898 7.124 14.297C40.51 23.49 44.529 28.9 45.203 37.66l.045.638c.042.555.085 1.108.085 1.703 0 8.77-5.324 16.316-12.907 19.59z"/></symbol><symbol viewBox="0 0 49 44" id="gear" xmlns="http://www.w3.org/2000/svg"><path d="M45.335 36.73a3.64 3.64 0 0 0-3.506 2.679h-3.19v-.032a.957.957 0 0 0-1.913 0v.988c0 .528.429.957.957.957h4.146A3.64 3.64 0 0 0 45.335 44a3.639 3.639 0 0 0 3.635-3.635 3.639 3.639 0 0 0-3.635-3.635zm0 5.357a1.722 1.722 0 1 1 1.722-1.722c0 .95-.772 1.722-1.722 1.722zM11.287 2.678H7.14A3.64 3.64 0 0 0 3.635 0 3.639 3.639 0 0 0 0 3.635 3.639 3.639 0 0 0 3.635 7.27 3.64 3.64 0 0 0 7.14 4.59h3.19a.957.957 0 0 0 1.913 0v-.956a.957.957 0 0 0-.957-.957zM3.635 5.356c-.95 0-1.722-.772-1.722-1.721 0-.95.773-1.722 1.722-1.722a1.722 1.722 0 0 1 0 3.443zm38.467 12.402h-2.044a16.042 16.042 0 0 0-1.562-3.773l1.444-1.444c.322-.322.5-.75.5-1.205 0-.454-.178-.882-.5-1.204l-3.59-3.59a1.692 1.692 0 0 0-1.203-.498c-.455 0-.883.177-1.205.498l-1.444 1.445a16.037 16.037 0 0 0-3.773-1.562V4.38c0-.939-.765-1.703-1.704-1.703h-5.076c-.94 0-1.703.764-1.703 1.703v2.05a16.04 16.04 0 0 0-3.767 1.564l-1.45-1.451a1.692 1.692 0 0 0-1.205-.5c-.455 0-.883.178-1.205.5l-3.59 3.59c-.32.32-.498.749-.498 1.204 0 .454.177.882.499 1.204l1.456 1.456a16.035 16.035 0 0 0-1.555 3.762H6.865c-.94 0-1.704.764-1.704 1.703v5.076c0 .94.764 1.703 1.704 1.703h2.067c.358 1.312.88 2.574 1.557 3.755l-1.463 1.463c-.322.322-.499.75-.499 1.204 0 .455.177.883.499 1.205l3.59 3.59c.321.32.749.498 1.204.498a1.69 1.69 0 0 0 1.204-.499l1.463-1.463c1.182.676 2.443 1.2 3.755 1.557v2.068c0 .939.764 1.703 1.703 1.703h5.076c.94 0 1.703-.764 1.703-1.703v-2.063a16.042 16.042 0 0 0 3.762-1.555l1.456 1.456c.322.322.75.5 1.205.5.455 0 .882-.178 1.204-.5l3.59-3.59c.321-.321.498-.749.498-1.204a1.69 1.69 0 0 0-.499-1.204l-1.45-1.451a16.046 16.046 0 0 0 1.563-3.767h2.049c.939 0 1.703-.764 1.703-1.703v-5.076c0-.94-.764-1.704-1.703-1.704zm-.21 6.57h-2a1.7 1.7 0 0 0-1.647 1.268 14.132 14.132 0 0 1-1.489 3.587 1.7 1.7 0 0 0 .266 2.063l1.417 1.417-3.292 3.293-1.423-1.422a1.7 1.7 0 0 0-2.06-.267 14.128 14.128 0 0 1-3.583 1.48 1.7 1.7 0 0 0-1.27 1.647v2.015h-4.656v-2.02a1.7 1.7 0 0 0-1.268-1.646 14.134 14.134 0 0 1-3.576-1.483 1.7 1.7 0 0 0-2.062.267l-1.43 1.43-3.292-3.294 1.429-1.429a1.7 1.7 0 0 0 .267-2.062 14.126 14.126 0 0 1-1.483-3.576 1.7 1.7 0 0 0-1.647-1.268H7.074v-4.657H9.09a1.7 1.7 0 0 0 1.646-1.27c.327-1.255.825-2.46 1.481-3.581a1.7 1.7 0 0 0-.267-2.061l-1.422-1.423 3.293-3.292 1.417 1.417a1.7 1.7 0 0 0 2.063.266 14.124 14.124 0 0 1 3.587-1.49 1.7 1.7 0 0 0 1.268-1.646v-2h4.656v1.996a1.7 1.7 0 0 0 1.27 1.646c1.26.328 2.469.828 3.593 1.488.667.39 1.514.28 2.062-.267l1.41-1.41 3.293 3.293-1.41 1.41a1.7 1.7 0 0 0-.267 2.062 14.128 14.128 0 0 1 1.488 3.593 1.7 1.7 0 0 0 1.647 1.27h1.995v4.656z"/><path d="M22.343 18.065h4.285c.59 0 1.07.442 1.07.984h2.143c0-1.627-1.442-2.952-3.213-2.952h-1.072v-.984h-2.142v.984h-1.071c-1.772 0-3.214 1.325-3.214 2.952v.983c0 1.627 1.442 2.952 3.214 2.952h4.285c.59 0 1.07.44 1.07.983v.984c0 .543-.48.984-1.07.984h-4.285c-.591 0-1.072-.44-1.072-.984H19.13c0 1.627 1.442 2.952 3.214 2.952h1.07v.983h2.143v-.983h1.072c1.771 0 3.213-1.325 3.213-2.952v-.983c0-1.628-1.442-2.952-3.213-2.952h-4.285c-.591 0-1.072-.442-1.072-.984v-.983c0-.542.48-.984 1.072-.984z"/><path d="M24.254 33.477a11.27 11.27 0 0 0 7.117-2.54l-1.296-1.582a9.215 9.215 0 0 1-5.82 2.078c-5.075 0-9.202-4.128-9.202-9.202a9.22 9.22 0 0 1 2.077-5.822l-1.582-1.295a11.27 11.27 0 0 0-2.54 7.117c0 6.2 5.045 11.246 11.246 11.246zm.462-20.909c5.074 0 9.202 4.128 9.202 9.201a9.215 9.215 0 0 1-2.078 5.821l1.582 1.297a11.27 11.27 0 0 0 2.54-7.118c0-6.2-5.045-11.246-11.246-11.246-2.588 0-5.115.901-7.117 2.54l1.296 1.582a9.214 9.214 0 0 1 5.82-2.077zM45.335 0a3.64 3.64 0 0 0-3.506 2.678h-4.146a.957.957 0 0 0-.956.957v.956a.957.957 0 0 0 1.913 0h3.19a3.64 3.64 0 0 0 3.505 2.679 3.639 3.639 0 0 0 3.635-3.635A3.64 3.64 0 0 0 45.335 0zm0 5.356a1.722 1.722 0 0 1 0-3.443 1.722 1.722 0 0 1 0 3.443zM11.287 38.42a.957.957 0 0 0-.957.957v.032H7.14a3.64 3.64 0 0 0-3.505-2.678A3.639 3.639 0 0 0 0 40.364 3.639 3.639 0 0 0 3.635 44a3.64 3.64 0 0 0 3.506-2.678h4.146a.957.957 0 0 0 .956-.957v-.988a.957.957 0 0 0-.956-.957zm-7.652 3.667c-.95 0-1.722-.773-1.722-1.722a1.722 1.722 0 1 1 1.722 1.722z"/></symbol><symbol viewBox="0 0 46 46" id="gears" xmlns="http://www.w3.org/2000/svg"><path d="M37.253.93c-1.813 0-3.58.628-4.997 1.766l-.013.008L6.328 22.05a13.121 13.121 0 0 0-5.513 9.07 1.163 1.163 0 0 0-.053.343v.11a13.313 13.313 0 0 0 0 2.58v.23c0 .148.029.29.08.422a13.121 13.121 0 0 0 2.385 5.825c.053.174.147.337.28.472l.594.602c.251.277.513.543.786.797l.658.666c.144.147.32.247.507.298a12.751 12.751 0 0 0 5.543 2.325c.17.102.368.16.577.16h2.881c.209 0 .406-.057.577-.159a12.711 12.711 0 0 0 5.57-2.334 1.13 1.13 0 0 0 .48-.29l.532-.538c.352-.32.688-.66 1.008-1.022l.498-.505c.13-.132.223-.291.277-.46L43.65 14.041l.011-.017a8.254 8.254 0 0 0 1.64-4.934c0-4.5-3.611-8.16-8.05-8.16zm5.91 5.087c.2.394.363.81.484 1.245l-.29-.057a6.5 6.5 0 0 0-.375-.917l.18-.271zm-2.686-2.814l-.32.22a6.342 6.342 0 0 0-.906-.38l-.076-.4c.457.14.892.329 1.302.56zm-5.146-.56l-.077.4c-.31.102-.613.23-.905.38l-.322-.22c.414-.233.851-.42 1.304-.56zM3.77 26.813l.746 1.12a10.506 10.506 0 0 0-.818 2.001l-1.288.253a11.753 11.753 0 0 1 1.36-3.374zm.043 12.16a11.692 11.692 0 0 1-1.372-3.304l1.257.247c.203.694.477 1.364.818 2.001l-.703 1.056zm3.853 3.875l1.023-.701c.628.346 1.29.623 1.974.83l.233 1.223a11.353 11.353 0 0 1-3.23-1.352zm8.663 1.355l.234-1.227a10.19 10.19 0 0 0 1.974-.83l1.03.706a11.32 11.32 0 0 1-3.238 1.35zm7.113-5.186l-.733-1.1a10.5 10.5 0 0 0 .819-2.001l2.01-.395c.537-.105.925-.583.925-1.136v-2.92c0-.553-.389-1.031-.924-1.136l-2.012-.395a10.5 10.5 0 0 0-.818-2.001l1.148-1.722a1.17 1.17 0 0 0-.14-1.465l-2.036-2.066a1.131 1.131 0 0 0-1.446-.14l-1.698 1.163a10.195 10.195 0 0 0-2.41-.95.702.702 0 0 0-.851.518.712.712 0 0 0 .51.863 8.81 8.81 0 0 1 2.421 1.017.694.694 0 0 0 .754-.02l1.88-1.289 1.731 1.755-1.27 1.906a.72.72 0 0 0-.02.764c.452.765.79 1.59 1.003 2.454.066.269.28.474.547.527l2.227.437v2.48l-2.227.438a.706.706 0 0 0-.547.526 9.07 9.07 0 0 1-1.004 2.454.72.72 0 0 0 .02.765l1.246 1.868c-.112.14-.226.277-.343.41l-.948.962c-.15.134-.301.265-.456.391l-1.839-1.26a.694.694 0 0 0-.754-.02 8.808 8.808 0 0 1-2.42 1.017.708.708 0 0 0-.52.556l-.418 2.19a11.523 11.523 0 0 1-2.473 0l-.418-2.19a.708.708 0 0 0-.519-.555 8.812 8.812 0 0 1-2.42-1.017.695.695 0 0 0-.755.02l-1.83 1.254c-.19-.154-.376-.313-.556-.48l-.782-.791a14.91 14.91 0 0 1-.415-.49l1.243-1.865a.72.72 0 0 0 .02-.765 9.067 9.067 0 0 1-1.003-2.454.706.706 0 0 0-.548-.526l-2.217-.436-.01-.083v-2.4l2.227-.436a.706.706 0 0 0 .548-.527 9.054 9.054 0 0 1 1.003-2.454.72.72 0 0 0-.02-.764l-1.27-1.906 1.73-1.755 1.88 1.288c.226.155.52.163.754.02a8.81 8.81 0 0 1 2.42-1.016.708.708 0 0 0 .52-.555l.431-2.258h2.484c.145.258.44.407.744.347a.711.711 0 0 0 .556-.833 1.147 1.147 0 0 0-1.12-.937h-2.88c-.546 0-1.017.394-1.121.937l-.39 2.039c-.684.206-1.345.484-1.974.83l-1.15-.789 23.416-17.48.57.854a6.524 6.524 0 0 0-.376.917l-1.026.202a.974.974 0 0 0-.78.958v1.733c0 .466.328.869.78.958l1.026.201c.102.315.227.622.375.918l-.585.878a.987.987 0 0 0 .117 1.236l1.209 1.225c.325.33.838.38 1.219.119l.866-.593c.292.15.595.277.906.38l.198 1.04c.087.458.485.79.945.79h1.71c.46 0 .857-.332.944-.79l.199-1.04c.31-.103.613-.23.905-.38l.666.456-17.38 23.52zm19.64-26.692l-.1-.15c.148-.295.274-.602.376-.917l.197-.039a6.803 6.803 0 0 1-.474 1.105zm-.413-2.382a.706.706 0 0 0-.547.527c-.12.484-.31.948-.564 1.377a.72.72 0 0 0 .02.765l.622.933-.693.703-.92-.63a.694.694 0 0 0-.755-.02c-.424.257-.88.449-1.359.57a.707.707 0 0 0-.519.555l-.21 1.106h-.982l-.21-1.106a.707.707 0 0 0-.52-.555 4.947 4.947 0 0 1-1.358-.57.694.694 0 0 0-.755.02l-.92.63-.694-.703.622-.933a.72.72 0 0 0 .02-.765 5.093 5.093 0 0 1-.563-1.377.706.706 0 0 0-.548-.527l-1.09-.213v-.995l1.09-.214a.706.706 0 0 0 .548-.526 5.09 5.09 0 0 1 .563-1.377.72.72 0 0 0-.02-.765l-.622-.933.694-.704.92.63c.226.156.52.164.755.021.423-.258.88-.45 1.358-.57a.708.708 0 0 0 .52-.556l.21-1.105h.981l.211 1.105a.707.707 0 0 0 .52.555c.478.121.934.313 1.358.571a.694.694 0 0 0 .754-.02l.92-.63.694.703-.621.933a.72.72 0 0 0-.02.765c.254.429.443.892.563 1.377.066.268.28.473.547.526l1.09.214v.995l-1.09.213z"/></symbol><symbol viewBox="0 0 64 48" id="helmet" xmlns="http://www.w3.org/2000/svg"><path d="M61.858 37.892h-.07v-5.598c0-13.972-9.76-26.081-23.317-29.083a3.217 3.217 0 0 0-.895-1.926A3.222 3.222 0 0 0 35.24.294h-6.48a3.22 3.22 0 0 0-2.336.991 3.218 3.218 0 0 0-.895 1.926C11.972 6.213 2.212 18.322 2.212 32.294v5.598h-.07A2.145 2.145 0 0 0 0 40.034v1.41c0 .933.59 1.753 1.468 2.04C9.796 46.207 20.64 47.706 32 47.706s22.204-1.5 30.532-4.222A2.136 2.136 0 0 0 64 41.444v-1.41a2.145 2.145 0 0 0-2.142-2.142zM27.915 2.726c.223-.231.524-.359.845-.359h6.48c.321 0 .621.127.845.359.223.231.34.535.33.857l-.954 27.645a1.17 1.17 0 0 1-1.174 1.135h-4.573a1.17 1.17 0 0 1-1.175-1.134l-.953-27.646a1.165 1.165 0 0 1 .329-.857zm34.012 38.718c0 .028-.013.06-.04.07-8.125 2.656-18.74 4.119-29.887 4.119-11.148 0-21.762-1.463-29.887-4.12-.027-.009-.04-.04-.04-.069v-1.41a.07.07 0 0 1 .07-.069h39.81a1.037 1.037 0 0 0 0-2.073H4.285v-5.598c0-10.42 5.835-19.725 14.645-24.447l2.25 15.748a1.037 1.037 0 0 0 2.052-.293L20.888 6.893a27.485 27.485 0 0 1 4.683-1.565l.896 25.971a3.236 3.236 0 0 0 3.247 3.137h4.573a3.236 3.236 0 0 0 3.246-3.137l.896-25.97c1.625.385 3.19.911 4.683 1.564L40.77 23.302a1.037 1.037 0 0 0 2.052.293l2.25-15.748c8.81 4.722 14.644 14.027 14.644 24.447v5.598h-6.704a1.037 1.037 0 1 0 0 2.073h8.847a.07.07 0 0 1 .069.07v1.41z"/></symbol><symbol viewBox="0 0 33 32" id="inst" xmlns="http://www.w3.org/2000/svg"><path fill-rule="evenodd" clip-rule="evenodd" d="M16.75 0C7.946 0 .81 6.95.81 15.522c0 8.573 7.136 15.523 15.94 15.523 8.803 0 15.94-6.95 15.94-15.523C32.69 6.95 25.554 0 16.75 0zm-3.505 7.294c.907-.04 1.197-.05 3.506-.05h-.003c2.31 0 2.598.01 3.505.05.905.04 1.523.18 2.065.384.56.212 1.033.494 1.506.955.473.46.763.922.981 1.467.209.526.352 1.127.395 2.009.04.883.051 1.165.051 3.413 0 2.249-.01 2.53-.051 3.413-.043.881-.186 1.483-.395 2.01a4.055 4.055 0 0 1-.981 1.466 4.17 4.17 0 0 1-1.505.955c-.541.205-1.16.345-2.065.385-.907.04-1.195.05-3.505.05-2.308 0-2.598-.01-3.505-.05-.905-.04-1.522-.18-2.063-.385a4.175 4.175 0 0 1-1.506-.955 4.047 4.047 0 0 1-.98-1.467c-.21-.526-.354-1.128-.395-2.009-.041-.883-.052-1.164-.052-3.413 0-2.248.01-2.53.051-3.413.041-.881.185-1.483.395-2.01a4.055 4.055 0 0 1 .982-1.466c.472-.46.947-.743 1.506-.955.54-.204 1.158-.344 2.063-.384z"/><path fill-rule="evenodd" clip-rule="evenodd" d="M15.988 8.735h.763c2.27 0 2.539.008 3.435.048.829.037 1.279.172 1.579.285.396.15.68.33.977.62.297.29.481.565.636.951.116.292.255.73.293 1.537.04.873.05 1.135.05 3.344 0 2.21-.01 2.472-.05 3.345-.038.807-.177 1.245-.293 1.536a2.556 2.556 0 0 1-.636.951c-.298.29-.58.47-.977.62-.3.113-.75.248-1.579.285-.896.04-1.165.048-3.435.048s-2.54-.008-3.436-.048c-.829-.037-1.278-.172-1.578-.286a2.64 2.64 0 0 1-.978-.619 2.562 2.562 0 0 1-.636-.951c-.116-.292-.255-.73-.293-1.537-.04-.873-.049-1.135-.049-3.346 0-2.21.008-2.471.05-3.344.037-.807.176-1.245.292-1.537a2.56 2.56 0 0 1 .636-.952c.298-.29.581-.47.978-.62.3-.113.75-.248 1.578-.285.785-.035 1.089-.045 2.673-.047v.002zm5.3 1.375c-.562 0-1.02.445-1.02.993 0 .549.458.994 1.02.994.564 0 1.021-.445 1.021-.994 0-.548-.457-.993-1.02-.993zm-8.903 5.413c0-2.348 1.955-4.252 4.366-4.252 2.41 0 4.365 1.904 4.365 4.252 0 2.347-1.954 4.25-4.365 4.25-2.411 0-4.366-1.903-4.366-4.25z"/><path fill-rule="evenodd" clip-rule="evenodd" d="M16.75 12.763c1.565 0 2.834 1.236 2.834 2.76 0 1.524-1.269 2.76-2.834 2.76-1.565 0-2.834-1.236-2.834-2.76 0-1.524 1.27-2.76 2.834-2.76z"/></symbol><symbol viewBox="0 0 25 14" id="list-mark" xmlns="http://www.w3.org/2000/svg"><path fill-rule="evenodd" clip-rule="evenodd" d="M15.665.25L5.91 10.158 2.053 6.231.385 7.923l5.525 5.619 11.423-11.6L15.665.25zm-4.776 10.989l2.27 2.303 11.424-11.6L22.915.25l-9.755 9.908-.604-.612-1.667 1.693z"/></symbol><symbol viewBox="0 0 14 24" id="phone" xmlns="http://www.w3.org/2000/svg"><path d="M12.2 0H1.8C.803 0 0 .772 0 1.722v20.193c0 .949.804 1.72 1.8 1.72h10.4c.995 0 1.8-.771 1.8-1.72V1.722C14 .772 13.195 0 12.2 0zM4.434 1.046h5.135c.13 0 .236.185.236.414 0 .229-.106.415-.236.415H4.433c-.13 0-.234-.186-.234-.415 0-.23.104-.414.234-.414zm2.568 20.89c-.633 0-1.149-.493-1.149-1.1 0-.606.516-1.097 1.149-1.097.631 0 1.147.491 1.147 1.097 0 .607-.516 1.1-1.147 1.1zm5.651-3.764H1.35V2.905h11.303v15.268z"/></symbol><symbol viewBox="0 0 31 30" id="telgr" xmlns="http://www.w3.org/2000/svg"><path fill-rule="evenodd" clip-rule="evenodd" d="M30.808 15c0 8.284-6.897 15-15.404 15S0 23.284 0 15C0 6.716 6.897 0 15.404 0s15.404 6.716 15.404 15zm-17.966 3.051l-.262 3.824c.374 0 .545-.162.752-.359l.018-.016 1.85-1.752 3.85 2.77c.708.38 1.219.183 1.395-.641l2.527-11.595c.259-1.01-.395-1.469-1.073-1.169L7.061 14.684c-1.012.396-1.007.946-.184 1.191l3.808 1.158 8.815-5.416c.416-.246.798-.114.484.157l-7.142 6.277z"/></symbol><symbol viewBox="0 0 32 30" id="viber" xmlns="http://www.w3.org/2000/svg"><path fill-rule="evenodd" clip-rule="evenodd" d="M15.75 0c8.507 0 15.404 6.716 15.404 15 0 8.284-6.897 15-15.404 15S.346 23.284.346 15c0-8.284 6.897-15 15.404-15zm.922 6.11a8.663 8.663 0 0 1 2.823.814c.913.436 1.498.847 2.271 1.596.725.708 1.127 1.243 1.553 2.075.594 1.16.932 2.54.99 4.06.021.517.006.633-.116.78-.231.288-.74.24-.913-.082-.055-.107-.07-.199-.089-.613a10.453 10.453 0 0 0-.167-1.54c-.36-1.927-1.31-3.466-2.826-4.57-1.263-.924-2.57-1.374-4.28-1.472-.58-.032-.68-.053-.81-.15-.244-.187-.256-.625-.022-.83.143-.127.244-.145.74-.13.259.009.64.039.846.062zm-6.96.32c.107.035.271.118.366.177.578.373 2.189 2.377 2.716 3.378.301.571.401.995.307 1.309-.097.337-.259.515-.98 1.08-.29.228-.56.462-.603.524-.11.154-.198.456-.198.67.003.494.332 1.39.764 2.08.335.536.935 1.223 1.529 1.75.697.622 1.312 1.045 2.006 1.38.892.432 1.437.541 1.836.36.1-.044.207-.103.24-.13.031-.026.265-.305.521-.612.493-.604.606-.702.944-.815.43-.142.868-.103 1.31.116.334.169 1.065.61 1.537.93.621.423 1.948 1.477 2.128 1.687.317.379.372.864.159 1.4-.226.566-1.103 1.626-1.715 2.079-.554.408-.947.565-1.464.589-.426.02-.603-.015-1.148-.234-4.275-1.714-7.688-4.272-10.398-7.786-1.416-1.836-2.493-3.74-3.23-5.714-.43-1.151-.45-1.652-.098-2.24.153-.25.801-.865 1.273-1.209.786-.568 1.148-.778 1.437-.837.198-.042.542-.01.761.068zm7.17 1.826c1.849.264 3.28 1.099 4.218 2.454.526.764.855 1.661.968 2.623.04.353.04.995-.003 1.102a.68.68 0 0 1-.277.293c-.119.059-.372.053-.512-.018-.234-.116-.304-.3-.304-.796 0-.767-.204-1.575-.557-2.203a4.559 4.559 0 0 0-1.7-1.72c-.611-.355-1.516-.619-2.34-.684-.3-.024-.464-.083-.576-.21a.528.528 0 0 1-.046-.67c.158-.239.402-.277 1.13-.17zm.65 2.236c.599.124 1.059.346 1.451.704.506.465.783 1.027.905 1.835.082.527.048.735-.143.906-.18.16-.512.166-.713.015-.146-.106-.192-.219-.225-.524-.04-.405-.113-.69-.237-.953-.268-.56-.74-.85-1.538-.944-.375-.045-.487-.086-.61-.225a.543.543 0 0 1 .171-.83c.116-.056.165-.062.42-.047.159.01.393.036.518.063z"/></symbol><symbol viewBox="0 0 32 32" id="vk" xmlns="http://www.w3.org/2000/svg"><path fill-rule="evenodd" clip-rule="evenodd" d="M15.94 0C7.137 0 0 6.95 0 15.522c0 8.573 7.137 15.523 15.94 15.523 8.804 0 15.94-6.95 15.94-15.523C31.88 6.95 24.745 0 15.94 0zm1.298 20.423c-.157.161-.464.194-.464.194h-1.016s-2.242.128-4.217-1.837c-2.154-2.143-4.056-6.397-4.056-6.397s-.11-.28.01-.413c.133-.152.498-.162.498-.162l2.43-.015s.228.036.392.151a.73.73 0 0 1 .211.273s.393.949.912 1.807c1.016 1.677 1.488 2.043 1.832 1.864.503-.262.352-2.37.352-2.37s.01-.765-.253-1.106c-.203-.264-.585-.34-.754-.362-.137-.018.087-.321.378-.457.438-.204 1.21-.216 2.122-.208.71.007.915.05 1.193.114.645.149.625.625.581 1.654-.013.307-.028.664-.028 1.076 0 .093-.003.192-.006.294-.015.526-.032 1.13.331 1.354.187.115.642.017 1.78-1.83.54-.876.944-1.906.944-1.906s.089-.183.226-.262c.14-.08.33-.056.33-.056l2.557-.015s.768-.088.892.244c.13.348-.287 1.16-1.331 2.49-.99 1.261-1.472 1.727-1.43 2.138.032.3.346.572.948 1.107 1.256 1.114 1.592 1.7 1.673 1.841l.015.026c.563.893-.624.963-.624.963l-2.271.03s-.488.092-1.13-.33c-.336-.22-.665-.58-.978-.923-.478-.524-.92-1.008-1.296-.893-.633.192-.614 1.495-.614 1.495s.005.279-.139.427z"/></symbol><symbol viewBox="0 0 32 30" id="whatsApp" xmlns="http://www.w3.org/2000/svg"><path fill-rule="evenodd" clip-rule="evenodd" d="M31.5 15c0 8.284-6.896 15-15.404 15C7.59 30 .692 23.284.692 15c0-8.284 6.897-15 15.404-15C24.604 0 31.5 6.716 31.5 15zm-14.9 8.345h.004c5.05-.002 9.158-4.002 9.16-8.92 0-2.382-.951-4.623-2.68-6.31-1.73-1.685-4.03-2.614-6.48-2.615-5.049 0-9.158 4.001-9.16 8.919 0 1.572.421 3.106 1.223 4.459l-1.3 4.622 4.856-1.24a9.346 9.346 0 0 0 4.377 1.085z"/><path fill-rule="evenodd" clip-rule="evenodd" d="M12.726 20.806l-.278-.16-2.881.735.769-2.735-.181-.28A7.254 7.254 0 0 1 8.99 14.42c.001-4.088 3.417-7.413 7.616-7.413 2.034 0 3.945.773 5.382 2.174a7.269 7.269 0 0 1 2.228 5.245c-.002 4.088-3.417 7.413-7.613 7.413H16.6a7.757 7.757 0 0 1-3.875-1.033zm8.18-4.46c.159.075.267.126.313.2.057.094.057.54-.134 1.06-.19.521-1.105.996-1.545 1.06a3.217 3.217 0 0 1-1.441-.088 13.33 13.33 0 0 1-1.305-.47c-2.146-.902-3.596-2.927-3.87-3.31a2.777 2.777 0 0 0-.04-.055l-.002-.002c-.12-.157-.932-1.212-.932-2.303 0-1.027.518-1.565.756-1.812l.045-.047a.851.851 0 0 1 .61-.28c.153 0 .305.002.439.009h.051c.133 0 .3-.001.464.382l.253.598c.196.467.414.982.452 1.057.058.112.096.242.02.39a6.683 6.683 0 0 0-.033.064c-.057.114-.1.198-.197.308a9.39 9.39 0 0 0-.117.138 3.719 3.719 0 0 1-.226.253c-.114.11-.234.232-.1.455.133.223.593.953 1.273 1.543a5.907 5.907 0 0 0 1.69 1.04c.062.027.113.048.15.067.23.111.363.093.496-.056.134-.149.573-.65.725-.874.153-.223.305-.186.515-.111.21.074 1.335.613 1.564.725l.125.06z"/></symbol></svg>