<svg width="24" height="24" viewBox="0 0 24 24" fill="none" xmlns="http://www.w3.org/2000/svg">
<rect width="24" height="24" fill="#EF3C49"/>
<g clip-path="url(#clip0)">
<path d="M18.5592 5.35981H16.572V4.56459C16.572 4.25278 16.3192 4 16.0074 4C15.6956 4 15.4428 4.25278 15.4428 4.56459V5.35981H8.55743V4.56459C8.55743 4.25278 8.30465 4 7.99284 4C7.68103 4 7.42825 4.25278 7.42825 4.56459V5.35981H5.44106C5.12925 5.35981 4.87646 5.61259 4.87646 5.92441C4.87646 6.28409 4.87646 19.0867 4.87646 19.4354C4.87646 19.7472 5.12925 20 5.44106 20H18.5592C18.871 20 19.1238 19.7472 19.1238 19.4354C19.1238 19.0866 19.1238 6.28409 19.1238 5.92441C19.1238 5.61259 18.871 5.35981 18.5592 5.35981ZM17.9946 18.8708H6.00562V9.44834H17.9946V18.8708H17.9946ZM17.9946 8.31916H6.00562V6.48897H17.9946V8.31916H17.9946Z" fill="white"/>
<path d="M12.056 10.6465L10.8259 11.392C10.2481 11.7386 10.6956 12.7553 11.2452 12.389L11.5155 12.2213V16.9644C11.5155 17.2626 11.8789 17.4117 12.2423 17.4117C12.6057 17.4117 12.9692 17.2626 12.9692 16.9644V11.0378C12.9692 10.657 12.3335 10.4729 12.056 10.6465Z" fill="white"/>
</g>
<defs>
<clipPath id="clip0">
<rect width="16" height="16" fill="white" transform="translate(4 4)"/>
</clipPath>
</defs>
</svg>
