<svg width="45" height="45" viewBox="0 0 45 45" fill="none" xmlns="http://www.w3.org/2000/svg">
<path d="M37.5 7.9455V3.75C37.4974 1.68 35.82 0.002625 33.75 0H3.75C1.68 0.002625 0.002625 1.68 0 3.75V20.25C0.00581251 22.1653 1.45763 23.7671 3.363 23.9614L6.18225 31.2797C6.927 33.2121 9.09713 34.1747 11.0297 33.4309L28.635 26.649C27.4185 29.8266 27.7646 33.3911 29.5691 36.2754L30 36.9645V44.25C30 44.6644 30.3356 45 30.75 45H44.25C44.6644 45 45 44.6644 45 44.25V19.4934C44.9929 16.8997 43.9603 14.4146 42.1266 12.5803L37.5 7.9455ZM37.5 12.4309L39.7762 18.3398C40.2223 19.4996 39.6442 20.8011 38.4846 21.2475L37.1835 21.75C37.3913 21.2771 37.4989 20.766 37.5 20.25V12.4309ZM1.5 20.25V3.75C1.5 2.50763 2.50763 1.5 3.75 1.5H33.75C34.9924 1.5 36 2.50763 36 3.75V8.517H35.9934L36 8.53406V20.25C35.9942 20.3809 35.9771 20.5106 35.949 20.6385L29.079 13.7677C27.5347 12.2591 25.0729 12.2475 23.5147 13.7404C21.9563 15.2342 21.8627 17.6942 23.304 19.3011L26.2327 22.5H3.75C2.50763 22.5 1.5 21.4924 1.5 20.25ZM11.1082 24L5.775 26.0533L4.986 24H11.1082ZM10.4902 32.0308C9.33075 32.4778 8.02856 31.8997 7.58175 30.7402L6.3165 27.45L15.2692 24V23.9955H27.6075L28.5823 25.0583L10.4902 32.0308ZM43.5 43.5H31.5V37.5H43.5V43.5ZM43.5 36H31.1663L30.8409 35.4803C29.0123 32.5579 28.9395 28.8668 30.651 25.875C30.813 25.5919 30.7733 25.2364 30.5527 24.996L24.4067 18.291C23.4902 17.2879 23.5417 15.7371 24.5229 14.7975C25.5045 13.8577 27.0561 13.8731 28.0183 14.8316L39.9697 26.7803L41.0303 25.7197L38.2552 22.9447L39.0247 22.6448C40.9556 21.8998 41.9179 19.7316 41.175 17.7996L38.6364 11.2078L41.0661 13.6425C42.6186 15.1946 43.494 17.298 43.5 19.4934V36Z" fill="#EF3C49"/>
<path d="M8.55 10.5C9.627 10.5 10.5 9.627 10.5 8.55V4.95C10.5 3.873 9.627 3 8.55 3H4.95C3.873 3 3 3.873 3 4.95V8.55C3 9.627 3.873 10.5 4.95 10.5H8.55ZM4.5 8.55V7.5H6V6H4.5V4.95C4.5 4.70156 4.70156 4.5 4.95 4.5H8.55C8.79844 4.5 9 4.70156 9 4.95V6H7.5V7.5H9V8.55C9 8.79844 8.79844 9 8.55 9H4.95C4.70156 9 4.5 8.79844 4.5 8.55Z" fill="#EF3C49"/>
<path d="M3.75 12.75H6.75V14.25H3.75V12.75Z" fill="#EF3C49"/>
<path d="M3.75 17.25H6.75V18.75H3.75V17.25Z" fill="#EF3C49"/>
<path d="M17.25 17.25H20.25V18.75H17.25V17.25Z" fill="#EF3C49"/>
<path d="M8.25 12.75H11.25V14.25H8.25V12.75Z" fill="#EF3C49"/>
<path d="M12.75 12.75H15.75V14.25H12.75V12.75Z" fill="#EF3C49"/>
<path d="M17.25 12.75H20.25V14.25H17.25V12.75Z" fill="#EF3C49"/>
<path d="M31.5 3.75H33V5.99999H31.5V3.75Z" fill="#EF3C49"/>
<path d="M28.5 3.75H30V5.99999H28.5V3.75Z" fill="#EF3C49"/>
<path d="M25.5 3.75H27V5.99999H25.5V3.75Z" fill="#EF3C49"/>
<path d="M22.5 3.75H24V5.99999H22.5V3.75Z" fill="#EF3C49"/>
<path d="M33 39H34.5V40.5H33V39Z" fill="#EF3C49"/>
</svg>
