<svg width="64" height="64" viewBox="0 0 64 64" fill="none" xmlns="http://www.w3.org/2000/svg">
<g clip-path="url(#clip0)">
<path d="M11.7333 59.7334C12.0568 59.7334 12.363 59.586 12.5651 59.3334C13.0135 58.7787 23.4667 45.662 23.4667 39.4667C23.4667 32.9865 18.2135 27.7334 11.7333 27.7334C5.25313 27.7334 0 32.9865 0 39.4667C0 45.662 10.4531 58.7735 10.9016 59.3334C11.1036 59.586 11.4099 59.7334 11.7333 59.7334ZM11.7333 29.8667C17.0328 29.8725 21.3276 34.1673 21.3333 39.4667C21.3333 43.6053 15.0281 52.6548 11.7333 56.9376C8.43854 52.6563 2.13333 43.6074 2.13333 39.4667C2.13906 34.1673 6.43385 29.8725 11.7333 29.8667Z" fill="#EF3C49"/>
<path d="M16.0001 38.4C16.0001 36.0437 14.0897 34.1333 11.7335 34.1333C9.37721 34.1333 7.4668 36.0437 7.4668 38.4C7.4668 40.7562 9.37721 42.6666 11.7335 42.6666C14.0897 42.6666 16.0001 40.7562 16.0001 38.4ZM9.60013 38.4C9.60013 37.2218 10.5553 36.2666 11.7335 36.2666C12.9116 36.2666 13.8668 37.2218 13.8668 38.4C13.8668 39.5781 12.9116 40.5333 11.7335 40.5333C10.5553 40.5333 9.60013 39.5781 9.60013 38.4Z" fill="#EF3C49"/>
<path d="M55.4664 22.4C55.7774 22.4 56.0722 22.2646 56.2748 22.0286C57.0664 21.1104 63.9998 12.926 63.9998 8.53333C63.9998 3.82031 60.1795 0 55.4664 0C50.7534 0 46.9331 3.82031 46.9331 8.53333C46.9331 12.926 53.8664 21.1104 54.6581 22.0286C54.8607 22.2646 55.1555 22.4 55.4664 22.4ZM55.4664 2.13333C58.9998 2.13698 61.8628 5 61.8664 8.53333C61.8664 11.2365 57.794 16.8062 55.4664 19.6682C53.1378 16.8062 49.0664 11.2417 49.0664 8.53333C49.0701 5 51.9331 2.13698 55.4664 2.13333Z" fill="#EF3C49"/>
<path d="M58.6666 7.4666C58.6666 5.69941 57.2338 4.2666 55.4666 4.2666C53.6994 4.2666 52.2666 5.69941 52.2666 7.4666C52.2666 9.23379 53.6994 10.6666 55.4666 10.6666C57.2338 10.6666 58.6666 9.23379 58.6666 7.4666ZM54.3999 7.4666C54.3999 6.87754 54.8775 6.39994 55.4666 6.39994C56.0557 6.39994 56.5333 6.87754 56.5333 7.4666C56.5333 8.05566 56.0557 8.53327 55.4666 8.53327C54.8775 8.53327 54.3999 8.05566 54.3999 7.4666Z" fill="#EF3C49"/>
<path d="M54.4002 26.6668H55.4668C56.0559 26.6668 56.5335 26.1892 56.5335 25.6001C56.5335 25.0111 56.0559 24.5334 55.4668 24.5334H54.4002C53.8111 24.5334 53.3335 25.0111 53.3335 25.6001C53.3335 26.1892 53.8111 26.6668 54.4002 26.6668Z" fill="#EF3C49"/>
<path d="M40.5335 33.0667H42.6903C43.2794 33.0667 43.757 32.5891 43.757 32C43.757 31.411 43.2794 30.9333 42.6903 30.9333H40.5163C40.2346 30.9339 39.9643 31.0469 39.7658 31.2469C39.5674 31.4469 39.4564 31.7182 39.4585 32C39.4622 32.5906 39.9429 33.0672 40.5335 33.0667Z" fill="#EF3C49"/>
<path d="M52.4917 32C52.4917 32.5891 52.9693 33.0667 53.5584 33.0667H55.7313C56.3203 33.0667 56.798 32.5891 56.798 32C56.798 31.411 56.3203 30.9333 55.7313 30.9333H53.5584C52.9693 30.9333 52.4917 31.411 52.4917 32Z" fill="#EF3C49"/>
<path d="M47.8797 26.6668H50.0531C50.6422 26.6668 51.1198 26.1892 51.1198 25.6001C51.1198 25.0111 50.6422 24.5334 50.0531 24.5334H47.8797C47.2901 24.5334 46.813 25.0111 46.813 25.6001C46.813 26.1892 47.2901 26.6668 47.8797 26.6668Z" fill="#EF3C49"/>
<path d="M19.4291 61.8667H17.2551C16.6661 61.8667 16.1885 62.3443 16.1885 62.9334C16.1885 63.5224 16.6661 64 17.2551 64H19.4291C20.0182 64 20.4958 63.5224 20.4958 62.9334C20.4958 62.3443 20.0182 61.8667 19.4291 61.8667Z" fill="#EF3C49"/>
<path d="M37.4006 30.5282C37.4751 30.5282 37.549 30.5204 37.6214 30.5047C38.1975 30.3834 38.5662 29.8188 38.4459 29.2427C38.4157 29.0969 38.4006 28.949 38.4001 28.8C38.3996 28.4625 38.4792 28.1303 38.6324 27.8292C38.8996 27.3042 38.6907 26.662 38.1652 26.3948C37.6402 26.1276 36.998 26.3365 36.7308 26.862C36.2886 27.7303 36.1574 28.7245 36.3584 29.6782C36.461 30.1719 36.8959 30.5271 37.4006 30.5282Z" fill="#EF3C49"/>
<path d="M47.0403 33.0667H49.2143C49.8033 33.0667 50.2809 32.5891 50.2809 32C50.2809 31.411 49.8033 30.9333 49.2143 30.9333H47.0403C46.4512 30.9333 45.9736 31.411 45.9736 32C45.9736 32.5891 46.4512 33.0667 47.0403 33.0667Z" fill="#EF3C49"/>
<path d="M41.3587 26.6668H43.5326C44.1217 26.6668 44.5993 26.1892 44.5993 25.6001C44.5993 25.0111 44.1217 24.5334 43.5326 24.5334H41.3587C40.7696 24.5334 40.292 25.0111 40.292 25.6001C40.292 26.1892 40.7696 26.6668 41.3587 26.6668Z" fill="#EF3C49"/>
<path d="M30.8181 45.202C30.9025 45.2239 30.99 45.2343 31.077 45.2343C31.5666 45.2333 31.9926 44.8999 32.1108 44.4254C32.2488 43.877 32.5087 43.3666 32.8712 42.9322C33.1275 42.6416 33.2056 42.2353 33.0764 41.8708C32.9473 41.5056 32.6301 41.2395 32.2483 41.1749C31.8671 41.1109 31.4801 41.2582 31.2384 41.5603C30.6671 42.2421 30.2577 43.0442 30.0416 43.9072C29.9723 44.1817 30.0155 44.4728 30.1614 44.7156C30.3067 44.9588 30.5431 45.1338 30.8181 45.202Z" fill="#EF3C49"/>
<path d="M51.8911 61.8219C51.6619 61.8521 51.4312 61.8672 51.1999 61.8667H49.8572C49.2676 61.8667 48.7905 62.3443 48.7905 62.9334C48.7905 63.5224 49.2676 64 49.8572 64H51.1999C51.5207 64 51.8416 63.9792 52.1598 63.9381C52.7442 63.8625 53.1567 63.3276 53.0817 62.7433C53.0062 62.1589 52.4713 61.7464 51.8869 61.8219H51.8911Z" fill="#EF3C49"/>
<path d="M53.377 49.3865C52.6712 49.1729 51.9374 49.0651 51.1999 49.0667H50.9202C50.3311 49.0667 49.8535 49.5443 49.8535 50.1333C49.8535 50.7224 50.3311 51.2 50.9202 51.2H51.1999C51.727 51.2 52.2514 51.2776 52.7561 51.4302C52.8567 51.4615 52.9613 51.4771 53.0666 51.4771C53.5952 51.4776 54.0447 51.0906 54.1228 50.5677C54.2004 50.0443 53.8832 49.5432 53.377 49.3901V49.3865Z" fill="#EF3C49"/>
<path d="M51.1019 41.5999C51.691 41.5999 52.1686 41.1223 52.1686 40.5332C52.1686 39.9442 51.691 39.4666 51.1019 39.4666H48.929C48.3399 39.4666 47.8623 39.9442 47.8623 40.5332C47.8623 41.1223 48.3399 41.5999 48.929 41.5999H51.1019Z" fill="#EF3C49"/>
<path d="M57.4758 58.1854C56.9394 57.9437 56.3081 58.1823 56.0659 58.7187C55.8175 59.2703 55.4764 59.7755 55.0581 60.2125C54.7842 60.4859 54.68 60.8859 54.7857 61.2578C54.8915 61.6302 55.1904 61.9161 55.5665 62.0047C55.943 62.0937 56.3383 61.9719 56.5993 61.6864C57.1857 61.075 57.6639 60.3672 58.0118 59.5948C58.2524 59.0578 58.0128 58.4271 57.4758 58.1854Z" fill="#EF3C49"/>
<path d="M63.0627 36.4542C62.7913 36.374 62.4992 36.4047 62.2502 36.5401C62.0018 36.6755 61.8169 36.9042 61.7367 37.1755C61.5799 37.6985 61.2934 38.1735 60.9038 38.5558C60.4825 38.9683 60.4752 39.6438 60.8877 40.0651C61.3002 40.4865 61.9757 40.4933 62.3971 40.0813C63.0471 39.4443 63.5242 38.6526 63.7835 37.7802C63.8643 37.5089 63.833 37.2167 63.6981 36.9677C63.5627 36.7193 63.3341 36.5344 63.0627 36.4542Z" fill="#EF3C49"/>
<path d="M61.8451 34.4854C62.2665 34.4859 62.6482 34.238 62.8201 33.8536C62.9915 33.4693 62.9212 33.0198 62.6399 32.7062C62.0311 32.0292 61.2602 31.5182 60.3998 31.2213C59.8425 31.0297 59.2358 31.3265 59.0441 31.8838C58.8524 32.4411 59.1493 33.0479 59.7066 33.2396C60.2233 33.4172 60.6857 33.724 61.0503 34.1312C61.2529 34.3568 61.542 34.4854 61.8451 34.4854Z" fill="#EF3C49"/>
<path d="M46.5741 49.0667H44.4011C43.8121 49.0667 43.3345 49.5443 43.3345 50.1333C43.3345 50.7224 43.8121 51.2 44.4011 51.2H46.5741C47.1631 51.2 47.6407 50.7224 47.6407 50.1333C47.6407 49.5443 47.1631 49.0667 46.5741 49.0667Z" fill="#EF3C49"/>
<path d="M57.6225 39.4666H55.4485C54.8594 39.4666 54.3818 39.9442 54.3818 40.5332C54.3818 41.1223 54.8594 41.5999 55.4485 41.5999H57.6225C58.2115 41.5999 58.6891 41.1223 58.6891 40.5332C58.6891 39.9442 58.2115 39.4666 57.6225 39.4666Z" fill="#EF3C49"/>
<path d="M25.9491 61.8667H23.7761C23.1871 61.8667 22.7095 62.3443 22.7095 62.9334C22.7095 63.5224 23.1871 64 23.7761 64H25.9491C26.5381 64 27.0157 63.5224 27.0157 62.9334C27.0157 62.3443 26.5381 61.8667 25.9491 61.8667Z" fill="#EF3C49"/>
<path d="M57.3791 52.3412C57.0463 51.8543 56.3817 51.7293 55.8942 52.0621C55.4072 52.3949 55.2822 53.0595 55.6151 53.547C55.9557 54.0459 56.2083 54.5996 56.3614 55.184C56.4447 55.5657 56.7302 55.8715 57.1057 55.9808C57.4807 56.0902 57.8854 55.9855 58.1609 55.7079C58.4359 55.4308 58.5375 55.0251 58.4255 54.6506C58.2119 53.8267 57.8583 53.0454 57.3791 52.3412Z" fill="#EF3C49"/>
<path d="M34.0824 48.6839C33.5757 48.4313 33.1324 48.0688 32.784 47.6225C32.4225 47.1568 31.7522 47.073 31.2871 47.4345C30.8215 47.7954 30.7376 48.4657 31.0986 48.9313C31.6449 49.6324 32.3418 50.2016 33.1382 50.5964C33.6637 50.8417 34.2892 50.622 34.546 50.1016C34.8028 49.5819 34.5965 48.9516 34.0824 48.6839Z" fill="#EF3C49"/>
<path d="M32.4693 61.8667H30.2932C29.7042 61.8667 29.2266 62.3443 29.2266 62.9334C29.2266 63.5224 29.7042 64 30.2932 64H32.4693C33.0583 64 33.5359 63.5224 33.5359 62.9334C33.5359 62.3443 33.0583 61.8667 32.4693 61.8667Z" fill="#EF3C49"/>
<path d="M45.5106 61.8667H43.3377C42.7486 61.8667 42.271 62.3443 42.271 62.9334C42.271 63.5224 42.7486 64 43.3377 64H45.5106C46.0996 64 46.5773 63.5224 46.5773 62.9334C46.5773 62.3443 46.0996 61.8667 45.5106 61.8667Z" fill="#EF3C49"/>
<path d="M38.0618 41.5999C38.6509 41.5999 39.1285 41.1223 39.1285 40.5332C39.1285 39.9442 38.6509 39.4666 38.0618 39.4666H35.8889C35.2999 39.4666 34.8223 39.9442 34.8223 40.5332C34.8223 41.1223 35.2999 41.5999 35.8889 41.5999H38.0618Z" fill="#EF3C49"/>
<path d="M44.5866 41.5999C45.1757 41.5999 45.6533 41.1223 45.6533 40.5332C45.6533 39.9442 45.1757 39.4666 44.5866 39.4666H42.4085C41.8194 39.4666 41.3418 39.9442 41.3418 40.5332C41.3418 41.1223 41.8194 41.5999 42.4085 41.5999H44.5866Z" fill="#EF3C49"/>
<path d="M40.0541 49.0667H37.8806C37.2916 49.0667 36.814 49.5443 36.814 50.1333C36.814 50.7224 37.2916 51.2 37.8806 51.2H40.0541C40.6437 51.2 41.1207 50.7224 41.1207 50.1333C41.1207 49.5443 40.6437 49.0667 40.0541 49.0667Z" fill="#EF3C49"/>
<path d="M38.9911 61.8667H36.8172C36.2281 61.8667 35.7505 62.3443 35.7505 62.9334C35.7505 63.5224 36.2281 64 36.8172 64H38.9911C39.5802 64 40.0578 63.5224 40.0578 62.9334C40.0578 62.3443 39.5802 61.8667 38.9911 61.8667Z" fill="#EF3C49"/>
<path d="M12.7998 61.8667H11.7332C11.1441 61.8667 10.6665 62.3443 10.6665 62.9334C10.6665 63.5224 11.1441 64 11.7332 64H12.7998C13.3889 64 13.8665 63.5224 13.8665 62.9334C13.8665 62.3443 13.3889 61.8667 12.7998 61.8667Z" fill="#EF3C49"/>
</g>
<defs>
<clipPath id="clip0">
<rect width="64" height="64" fill="white"/>
</clipPath>
</defs>
</svg>
