<svg width="92" height="92" viewBox="0 0 92 92" fill="none" xmlns="http://www.w3.org/2000/svg">
<g clip-path="url(#clip0)">
<path d="M74.8081 21.6052C74.0638 21.6052 73.4604 22.2086 73.4604 22.9528V83.4503C73.4604 83.5015 73.4189 83.543 73.3677 83.543H25.8345C25.0902 83.543 24.4868 84.1464 24.4868 84.8907C24.4868 85.635 25.0902 86.2383 25.8345 86.2383H73.3677C74.9051 86.2383 76.1557 84.9877 76.1557 83.4503V22.9528C76.1557 22.2086 75.5523 21.6052 74.8081 21.6052Z" fill="#EF3C49"/>
<path d="M79.1291 5.76121H66.7236L62.2007 1.23828C61.402 0.439571 60.3402 -0.000305176 59.2107 -0.000305176H12.8706C11.3332 -0.000305176 10.0826 1.25032 10.0826 2.78773V83.4501C10.0826 84.9876 11.3332 86.2382 12.8706 86.2382H15.8441V89.2117C15.8441 90.7491 17.0947 91.9997 18.6321 91.9997H79.1291C80.6665 91.9997 81.9171 90.7491 81.9171 89.2117V8.54942C81.9171 7.01201 80.6665 5.76121 79.1291 5.76121ZM60.3111 3.1604L72.9947 15.844H60.4038C60.3526 15.844 60.3111 15.8025 60.3111 15.7513V3.1604ZM79.2218 89.2118C79.2218 89.2631 79.1803 89.3046 79.1291 89.3046H18.6321C18.5809 89.3046 18.5394 89.2631 18.5394 89.2118V86.2384H20.0722C20.8164 86.2384 21.4198 85.635 21.4198 84.8907C21.4198 84.1464 20.8164 83.5431 20.0722 83.5431H12.8706C12.8194 83.5431 12.7779 83.5015 12.7779 83.4503V2.78773C12.7779 2.73652 12.8194 2.69501 12.8706 2.69501H57.6158V15.7513C57.6158 17.2887 58.8664 18.5393 60.4038 18.5393H74.808C75.5522 18.5393 76.1556 17.936 76.1556 17.1917V16.9446C76.1556 15.8153 75.7157 14.7533 74.917 13.9546L69.4189 8.45652H79.1291C79.1803 8.45652 79.2218 8.49803 79.2218 8.54924V89.2118Z" fill="#EF3C49"/>
<path d="M36.87 15.3952C36.3437 14.8689 35.4903 14.8689 34.9642 15.3952L27.3402 23.0192C27.3039 23.0553 27.2452 23.0553 27.2091 23.0192L24.1698 19.98H26.5094C27.2536 19.98 27.857 19.3766 27.857 18.6323C27.857 17.8881 27.2536 17.2847 26.5094 17.2847H22.9533C22.5224 17.2847 22.1156 17.3858 21.7509 17.5612L21.0255 16.8358C20.4992 16.3095 19.6458 16.3095 19.1197 16.8358C18.5934 17.3621 18.5934 18.2154 19.1197 18.7416L20.1791 19.801C20.1705 19.8903 20.1655 19.9809 20.1655 20.0725V28.715C20.1655 30.2524 21.4161 31.503 22.9535 31.503H31.596C33.1334 31.503 34.384 30.2524 34.384 28.715V19.787L36.87 17.301C37.3963 16.7747 37.3963 15.9214 36.87 15.3952ZM31.6887 28.7151C31.6887 28.7664 31.6472 28.8079 31.596 28.8079H22.9535C22.9023 28.8079 22.8608 28.7664 22.8608 28.7151V22.4823L25.3033 24.9248C25.8468 25.4684 26.5607 25.7402 27.2748 25.7402C27.9887 25.7402 28.7026 25.4684 29.2462 24.9248L31.6887 22.4823V28.7151Z" fill="#EF3C49"/>
<path d="M31.5959 36.0096H22.9534C21.416 36.0096 20.1654 37.2602 20.1654 38.7976V47.4401C20.1654 48.9775 21.416 50.2281 22.9534 50.2281H31.5959C33.1333 50.2281 34.3839 48.9775 34.3839 47.4401V38.7976C34.3839 37.2604 33.1333 36.0096 31.5959 36.0096ZM31.6886 47.4401C31.6886 47.4913 31.6471 47.5328 31.5959 47.5328H22.9534C22.9022 47.5328 22.8607 47.4913 22.8607 47.4401V38.7976C22.8607 38.7464 22.9022 38.7049 22.9534 38.7049H31.5959C31.6471 38.7049 31.6886 38.7464 31.6886 38.7976V47.4401Z" fill="#EF3C49"/>
<path d="M31.5959 54.7349H22.9534C21.416 54.7349 20.1654 55.9856 20.1654 57.523V66.1654C20.1654 67.7028 21.416 68.9534 22.9534 68.9534H31.5959C33.1333 68.9534 34.3839 67.7026 34.3839 66.1654V57.523C34.3839 55.9856 33.1333 54.7349 31.5959 54.7349ZM31.6886 66.1654C31.6886 66.2166 31.6471 66.2581 31.5959 66.2581H22.9534C22.9022 66.2581 22.8607 66.2164 22.8607 66.1654V57.523C22.8607 57.4717 22.9022 57.4302 22.9534 57.4302H31.5959C31.6471 57.4302 31.6886 57.4717 31.6886 57.523V66.1654Z" fill="#EF3C49"/>
<path d="M53.2019 20.1653H40.2383C39.4941 20.1653 38.8907 20.7687 38.8907 21.5129C38.8907 22.2572 39.4939 22.8606 40.2383 22.8606H53.2019C53.9462 22.8606 54.5496 22.2572 54.5496 21.5129C54.5496 20.7687 53.9462 20.1653 53.2019 20.1653Z" fill="#EF3C49"/>
<path d="M64.7251 25.927H40.2383C39.4941 25.927 38.8907 26.5304 38.8907 27.2747C38.8907 28.019 39.4939 28.6224 40.2383 28.6224H64.7251C65.4694 28.6224 66.0728 28.019 66.0728 27.2747C66.0728 26.5304 65.4696 25.927 64.7251 25.927Z" fill="#EF3C49"/>
<path d="M53.2019 38.8906H40.2383C39.4941 38.8906 38.8907 39.494 38.8907 40.2383C38.8907 40.9825 39.4939 41.5859 40.2383 41.5859H53.2019C53.9462 41.5859 54.5496 40.9825 54.5496 40.2383C54.5496 39.494 53.9462 38.8906 53.2019 38.8906Z" fill="#EF3C49"/>
<path d="M64.7251 44.6521H40.2383C39.4941 44.6521 38.8907 45.2555 38.8907 45.9998C38.8907 46.7441 39.4939 47.3474 40.2383 47.3474H64.7251C65.4694 47.3474 66.0728 46.7441 66.0728 45.9998C66.0728 45.2555 65.4696 44.6521 64.7251 44.6521Z" fill="#EF3C49"/>
<path d="M53.2019 57.6157H40.2383C39.4941 57.6157 38.8907 58.2191 38.8907 58.9634C38.8907 59.7076 39.4939 60.311 40.2383 60.311H53.2019C53.9462 60.311 54.5496 59.7076 54.5496 58.9634C54.5496 58.2191 53.9462 57.6157 53.2019 57.6157Z" fill="#EF3C49"/>
<path d="M64.7251 63.3773H40.2383C39.4941 63.3773 38.8907 63.9806 38.8907 64.7249C38.8907 65.4692 39.4939 66.0726 40.2383 66.0726H64.7251C65.4694 66.0726 66.0728 65.4692 66.0728 64.7249C66.0728 63.9806 65.4696 63.3773 64.7251 63.3773Z" fill="#EF3C49"/>
</g>
<defs>
<clipPath id="clip0">
<rect width="92" height="92" fill="white" transform="translate(0 -0.000305176)"/>
</clipPath>
</defs>
</svg>
