<svg width="64" height="64" viewBox="0 0 64 64" fill="none" xmlns="http://www.w3.org/2000/svg">
<g clip-path="url(#clip0)">
<path d="M63.0625 62.125H59.992V49.239C60.6056 48.6995 60.994 47.9096 60.994 47.0303C60.994 45.4083 59.6744 44.0888 58.0525 44.0888H51.9191L50.972 28.9355C50.9411 28.4414 50.5314 28.0565 50.0364 28.0565H46.0283C45.5333 28.0565 45.1235 28.4414 45.0926 28.9355L44.1455 44.0888H41.8989L40.9518 28.9355C40.9209 28.4414 40.5111 28.0565 40.0161 28.0565H36.0081C35.5131 28.0565 35.1034 28.4414 35.0725 28.9355L34.1254 44.0888H31.8787L30.9316 28.9355C30.9008 28.4414 30.491 28.0565 29.996 28.0565H25.988C25.493 28.0565 25.0833 28.4414 25.0524 28.9355L24.1052 44.0888H21.494L20.9132 17.951C20.902 17.4415 20.4856 17.0344 19.976 17.0344H13.9639C13.4542 17.0344 13.0379 17.4415 13.0266 17.951L12.3567 48.0969H4.9455C3.3235 48.0969 2.004 49.4165 2.004 51.0384C2.004 51.9178 2.39237 52.7076 3.006 53.2471V62.125H0.9375C0.41975 62.125 0 62.5448 0 63.0625C0 63.5803 0.41975 64 0.9375 64H63.0625C63.5802 64 64 63.5803 64 63.0625C64 62.5448 63.5802 62.125 63.0625 62.125ZM12.2674 52.105H8.954C8.43625 52.105 8.0165 52.5248 8.0165 53.0425C8.0165 53.5603 8.43625 53.98 8.954 53.98H12.2257L12.0448 62.125H4.881V53.9783C4.9025 53.9788 4.92387 53.9799 4.9455 53.9799C5.46325 53.9799 5.883 53.5601 5.883 53.0424C5.883 52.5246 5.46325 52.1049 4.9455 52.1049C4.35738 52.1049 3.879 51.6264 3.879 51.0384C3.879 50.4503 4.3575 49.9719 4.9455 49.9719H12.3147L12.2674 52.105ZM46.9089 29.9315H49.1555L50.0404 44.0888H46.0241L46.9089 29.9315ZM36.8887 29.9315H39.1354L40.0202 44.0888H36.004L36.8887 29.9315ZM26.8686 29.9315H29.1152L30 44.0888H25.9837L26.8686 29.9315ZM16.0324 62.125H13.9204L14.8805 18.9093H19.0589L19.6185 44.0888H17.9719C16.3499 44.0888 15.0302 45.4084 15.0302 47.0303C15.0302 47.9096 15.4186 48.6995 16.0324 49.239V62.125ZM58.0525 48.0968H56.0485C55.5308 48.0968 55.111 48.5165 55.111 49.0343C55.111 49.552 55.5308 49.9718 56.0485 49.9718H58.0525C58.0741 49.9718 58.0955 49.9705 58.117 49.9701V62.125H17.9072V49.9701C17.9287 49.9706 17.9501 49.9718 17.9718 49.9718H52.0411C52.5589 49.9718 52.9786 49.552 52.9786 49.0343C52.9786 48.5165 52.5589 48.0968 52.0411 48.0968H17.9718C17.3836 48.0968 16.9051 47.6183 16.9051 47.0303C16.9051 46.4423 17.3836 45.9638 17.9718 45.9638H58.0524C58.6405 45.9638 59.119 46.4421 59.119 47.0303C59.119 47.6184 58.6405 48.0968 58.0525 48.0968Z" fill="black"/>
<path d="M52.0404 0C49.2161 0 46.5236 0.985625 44.3712 2.79175C42.826 1.63225 40.9532 1.002 39.0141 1.002C36.6601 1.002 34.4129 1.93138 32.7425 3.5745C31.8766 3.20113 30.94 3.006 29.996 3.006C27.2087 3.006 24.7241 4.67488 23.6336 7.1725C23.2574 7.06713 22.8721 7.014 22.4809 7.014C20.5442 7.014 18.8789 8.27338 18.284 10.0375C18.1804 10.026 18.0761 10.0201 17.9717 10.0201C16.3497 10.0201 15.0301 11.3398 15.0301 12.9616C15.0302 13.4795 15.45 13.8993 15.9677 13.8993C16.4855 13.8993 16.9052 13.4795 16.9052 12.9618C16.9052 12.3736 17.3837 11.8953 17.9719 11.8953C18.1579 11.8953 18.3402 11.9479 18.5137 12.0518C18.7947 12.2199 19.143 12.2291 19.4326 12.0765C19.7221 11.9237 19.9111 11.631 19.9309 11.3041C20.013 9.95 21.1331 8.88925 22.4807 8.88925C22.9069 8.88925 23.3275 9.00437 23.7307 9.2315C23.9834 9.37387 24.288 9.39112 24.5554 9.27825C24.8227 9.16537 25.0226 8.93513 25.097 8.65462C25.6856 6.43287 27.7001 4.88112 29.9959 4.88112C30.8659 4.88112 31.7277 5.10862 32.4882 5.53888C32.877 5.75887 33.3674 5.674 33.6594 5.33575C35.0089 3.77325 36.9606 2.87713 39.014 2.87713C40.7696 2.87713 42.4576 3.5325 43.7669 4.72237C44.1322 5.05437 44.6925 5.04625 45.048 4.70363C46.9405 2.8795 49.4237 1.875 52.0404 1.875C57.6011 1.875 62.125 6.399 62.125 11.9596C62.125 17.5203 57.6011 22.0443 52.0404 22.0443C48.3485 22.0443 44.9546 20.0285 43.1832 16.7836C42.947 16.3509 42.4159 16.1751 41.9681 16.3814C41.0279 16.8145 40.034 17.0341 39.0141 17.0341C36.9607 17.0341 35.009 16.138 33.6595 14.5755C33.3675 14.2374 32.8772 14.1524 32.4884 14.3724C31.7279 14.8026 30.866 15.0301 29.996 15.0301C28.4117 15.0301 26.9457 14.3048 25.9741 13.04C25.7976 12.8104 25.525 12.6751 25.2354 12.6736C25.2337 12.6736 25.2322 12.6736 25.2307 12.6736C24.9429 12.6736 24.6707 12.806 24.493 13.0326C23.997 13.6652 23.2636 14.028 22.4809 14.028C21.9631 14.028 21.5434 14.4478 21.5434 14.9655C21.5434 15.4832 21.9631 15.903 22.4809 15.903C23.4745 15.903 24.4195 15.571 25.1895 14.9688C26.4759 16.2097 28.1786 16.905 29.996 16.905C30.94 16.905 31.8766 16.7099 32.7425 16.3366C34.4129 17.9797 36.6602 18.9091 39.0141 18.9091C40.0245 18.9091 41.0137 18.7395 41.965 18.4041C44.1555 21.826 47.943 23.9193 52.0404 23.9193C58.635 23.9193 64 18.5541 64 11.9596C64 5.36513 58.635 0 52.0404 0Z" fill="black"/>
<path d="M23.9839 52.1049C23.4661 52.1049 23.0464 52.5246 23.0464 53.0424V55.0464C23.0464 55.5641 23.4661 55.9839 23.9839 55.9839C24.5016 55.9839 24.9214 55.5641 24.9214 55.0464V53.0424C24.9214 52.5246 24.5016 52.1049 23.9839 52.1049Z" fill="black"/>
<path d="M27.992 52.1049C27.4743 52.1049 27.0545 52.5246 27.0545 53.0424V55.0464C27.0545 55.5641 27.4743 55.9839 27.992 55.9839C28.5098 55.9839 28.9295 55.5641 28.9295 55.0464V53.0424C28.9295 52.5246 28.5098 52.1049 27.992 52.1049Z" fill="black"/>
<path d="M32 52.1049C31.4822 52.1049 31.0625 52.5246 31.0625 53.0424V55.0464C31.0625 55.5641 31.4822 55.9839 32 55.9839C32.5178 55.9839 32.9375 55.5641 32.9375 55.0464V53.0424C32.9375 52.5246 32.5178 52.1049 32 52.1049Z" fill="black"/>
<path d="M36.008 52.1049C35.4902 52.1049 35.0705 52.5246 35.0705 53.0424V55.0464C35.0705 55.5641 35.4902 55.9839 36.008 55.9839C36.5257 55.9839 36.9455 55.5641 36.9455 55.0464V53.0424C36.9455 52.5246 36.5259 52.1049 36.008 52.1049Z" fill="black"/>
<path d="M40.0161 52.1049C39.4984 52.1049 39.0786 52.5246 39.0786 53.0424V55.0464C39.0786 55.5641 39.4984 55.9839 40.0161 55.9839C40.5339 55.9839 40.9536 55.5641 40.9536 55.0464V53.0424C40.9536 52.5246 40.5339 52.1049 40.0161 52.1049Z" fill="black"/>
<path d="M44.0241 52.1049C43.5064 52.1049 43.0866 52.5246 43.0866 53.0424V55.0464C43.0866 55.5641 43.5064 55.9839 44.0241 55.9839C44.5419 55.9839 44.9616 55.5641 44.9616 55.0464V53.0424C44.9616 52.5246 44.5419 52.1049 44.0241 52.1049Z" fill="black"/>
<path d="M48.0323 52.1049C47.5145 52.1049 47.0948 52.5246 47.0948 53.0424V55.0464C47.0948 55.5641 47.5145 55.9839 48.0323 55.9839C48.55 55.9839 48.9698 55.5641 48.9698 55.0464V53.0424C48.9698 52.5246 48.55 52.1049 48.0323 52.1049Z" fill="black"/>
<path d="M52.0404 52.1049C51.5226 52.1049 51.1029 52.5246 51.1029 53.0424V55.0464C51.1029 55.5641 51.5226 55.9839 52.0404 55.9839C52.5581 55.9839 52.9779 55.5641 52.9779 55.0464V53.0424C52.9779 52.5246 52.5581 52.1049 52.0404 52.1049Z" fill="black"/>
</g>
<defs>
<clipPath id="clip0">
<rect width="64" height="64" fill="white"/>
</clipPath>
</defs>
</svg>
