<svg width="48" height="64" viewBox="0 0 48 64" fill="none" xmlns="http://www.w3.org/2000/svg">
<path d="M47.9079 38.0986L47.8623 37.4724C47.1292 27.9285 42.6854 21.9456 38.765 16.6684C35.1349 11.7818 31.9996 7.56197 31.9996 1.33558C31.9996 0.835594 31.7197 0.378611 31.2757 0.14937C30.8303 -0.0811219 30.2952 -0.0433734 29.8903 0.250991C24.0026 4.46433 19.09 11.5657 17.3739 18.3414C16.1826 23.0588 16.025 28.3619 16.0029 31.8644C10.5656 30.703 9.33385 22.5692 9.32085 22.4807C9.25961 22.0588 9.00187 21.6916 8.62688 21.4911C8.24802 21.2932 7.80266 21.2788 7.41855 21.469C7.13343 21.6069 0.420058 25.0183 0.0294474 38.6402C0.00207346 39.0933 0.000823975 39.5464 0.000823975 40.0008C0.000823975 53.2334 10.7673 63.9999 23.9999 63.9999C37.2326 63.9999 47.999 53.2334 47.999 40.0008C47.999 39.3368 47.9535 38.7171 47.9079 38.0986ZM23.9999 61.3334C19.5886 61.3334 16.0002 57.5106 16.0002 52.8115C16.0002 52.6514 15.999 52.4899 16.0106 52.2921C16.064 50.3104 16.4403 48.9576 16.8531 48.0578C17.6265 49.7193 19.0105 51.2465 21.2553 51.2465C21.9923 51.2465 22.5886 50.6501 22.5886 49.9132C22.5886 48.0147 22.6277 45.8248 23.1003 43.8483C23.521 42.0944 24.526 40.2311 25.7995 38.7364C26.3658 40.6765 27.4701 42.2467 28.5481 43.7793C30.0911 45.9719 31.686 48.2387 31.966 52.1044C31.9829 52.3336 31.9999 52.564 31.9999 52.8114C31.9996 57.5106 28.4113 61.3334 23.9999 61.3334ZM32.4261 59.5913C33.8101 57.704 34.6663 55.3711 34.6663 52.8115C34.6663 52.4978 34.6468 52.2061 34.6077 51.6606C34.2913 47.3079 32.3994 44.6178 30.7289 42.2443C29.3059 40.2235 28.078 38.4776 28.078 36.001C28.078 35.4946 27.7915 35.0323 27.3384 34.8071C26.888 34.5805 26.3437 34.6313 25.9414 34.9373C23.3842 36.8695 21.2514 40.122 20.5067 43.2274C20.1265 44.8198 19.9937 46.5424 19.9468 47.959C19.0224 46.9643 18.7359 45.1206 18.7334 45.0958C18.6735 44.6675 18.4105 44.2937 18.0264 44.0946C17.6449 43.8967 17.1879 43.8915 16.8038 44.0894C16.4678 44.2612 13.5162 45.9539 13.347 52.1802C13.3352 52.3912 13.334 52.6021 13.334 52.8117C13.334 55.3712 14.1902 57.7041 15.5741 59.5914C7.9914 56.3172 2.66773 48.7714 2.66773 40.001C2.66773 39.6013 2.66648 39.2029 2.69372 38.7588C2.92284 30.7669 5.48012 26.8035 7.14931 25.0549C8.31327 29.2214 11.3627 34.6678 17.3338 34.6678C18.0708 34.6678 18.6671 34.0715 18.6671 33.3345C18.6671 28.8724 18.7674 23.7164 19.9601 18.9952C21.3142 13.6464 25.0236 7.87058 29.5014 3.9606C30.2448 9.67139 33.3553 13.8587 36.6248 18.2582C40.5114 23.4898 44.5295 28.8997 45.2026 37.6599L45.2483 38.2978C45.2899 38.8526 45.3329 39.4059 45.3329 40.0009C45.3325 48.7713 40.0088 56.317 32.4261 59.5913Z" fill="black"/>
</svg>
