<svg width="49" height="44" viewBox="0 0 49 44" fill="none" xmlns="http://www.w3.org/2000/svg">
<path d="M45.3353 36.7305C43.6622 36.7305 42.2502 37.8672 41.8291 39.4087H38.6396V39.3769C38.6396 38.8487 38.2113 38.4203 37.683 38.4203C37.1549 38.4203 36.7265 38.8486 36.7265 39.3769V40.3653C36.7265 40.8934 37.1548 41.3218 37.683 41.3218H41.8291C42.2501 42.8633 43.662 44 45.3352 44C47.3394 44 48.97 42.3695 48.97 40.3653C48.9701 38.361 47.3395 36.7305 45.3353 36.7305ZM45.3353 42.087C44.3859 42.087 43.6136 41.3145 43.6136 40.3653C43.6136 39.4159 44.386 38.6436 45.3353 38.6436C46.2847 38.6436 47.057 39.416 47.057 40.3653C47.057 41.3146 46.2847 42.087 45.3353 42.087Z" fill="#EF3C49"/>
<path d="M11.2869 2.67825H7.14094C6.71991 1.13674 5.308 0 3.63479 0C1.63055 0 0 1.63055 0 3.63479C0 5.63903 1.63055 7.26958 3.63479 7.26958C5.3079 7.26958 6.71981 6.13284 7.14094 4.59133H10.3305C10.3305 5.11948 10.7588 5.54788 11.287 5.54788C11.8152 5.54788 12.2436 5.11958 12.2436 4.59133V3.63479C12.2435 3.10664 11.8152 2.67825 11.2869 2.67825ZM3.63479 5.35649C2.68542 5.35649 1.91309 4.58406 1.91309 3.63479C1.91309 2.68551 2.68551 1.91309 3.63479 1.91309C4.58406 1.91309 5.35649 2.68551 5.35649 3.63479C5.35649 4.58406 4.58416 5.35649 3.63479 5.35649Z" fill="#EF3C49"/>
<path d="M42.1018 17.7584H40.0581C39.7006 16.4398 39.1756 15.1718 38.4961 13.9851L39.9404 12.5407C40.2621 12.2191 40.4393 11.7913 40.4393 11.3364C40.4393 10.8815 40.2621 10.4537 39.9405 10.1321L36.3509 6.54256C36.0293 6.22091 35.6015 6.04368 35.1466 6.04368C34.6917 6.04368 34.2639 6.22091 33.9423 6.54246L32.4979 7.98689C31.3109 7.30715 30.0432 6.78234 28.7245 6.42482V4.38127C28.7245 3.44223 27.9605 2.67822 27.0214 2.67822H21.9449C21.0058 2.67822 20.2418 3.44223 20.2418 4.38127V6.42999C18.9251 6.78875 17.6596 7.31432 16.4753 7.99387L15.0241 6.54275C14.7024 6.2211 14.2746 6.04387 13.8197 6.04387C13.3648 6.04387 12.937 6.2211 12.6154 6.54266L9.0259 10.1322C8.70425 10.4539 8.52702 10.8817 8.52702 11.3366C8.52702 11.7915 8.70425 12.2193 9.0258 12.5408L10.4824 13.9974C9.80588 15.1809 9.28338 16.4447 8.9271 17.7586H6.86452C5.92548 17.7586 5.16147 18.5226 5.16147 19.4618V24.5382C5.16147 25.4774 5.92548 26.2414 6.86452 26.2414H8.93226C9.28969 27.5533 9.81287 28.8147 10.4892 29.9957L9.0259 31.4591C8.70425 31.7807 8.52702 32.2086 8.52702 32.6634C8.52702 33.1183 8.70425 33.5462 9.0258 33.8677L12.6154 37.4573C12.937 37.7789 13.3648 37.9562 13.8197 37.9562C14.2746 37.9562 14.7024 37.7789 15.024 37.4574L16.4874 35.994C17.6685 36.6704 18.9298 37.1935 20.2418 37.5509V39.6186C20.2418 40.5577 21.0058 41.3217 21.9449 41.3217H27.0214C27.9605 41.3217 28.7245 40.5577 28.7245 39.6186V37.5561C30.0384 37.1998 31.3021 36.6772 32.4857 36.0008L33.9422 37.4573C34.2639 37.7789 34.6917 37.9562 35.1466 37.9562C35.6015 37.9562 36.0293 37.7789 36.3509 37.4574L39.9404 33.8678C40.2621 33.546 40.4392 33.1181 40.4392 32.6633C40.4392 32.2084 40.262 31.7806 39.9404 31.459L38.4892 30.0077C39.1687 28.8234 39.6943 27.5578 40.0531 26.2412H42.1018C43.0408 26.2412 43.8048 25.4772 43.8048 24.538V19.4616C43.8049 18.5225 43.0409 17.7584 42.1018 17.7584ZM41.8918 24.3283H39.8916C39.1173 24.3283 38.4404 24.8495 38.2455 25.5959C37.9167 26.854 37.4156 28.0609 36.7563 29.1828C36.3645 29.8495 36.4739 30.6979 37.0221 31.2462L38.4393 32.6634L35.1465 35.9561L33.7242 34.5338C33.1768 33.9864 32.3293 33.8764 31.6633 34.2666C30.542 34.9229 29.3367 35.4212 28.0811 35.7476C27.3335 35.942 26.8114 36.6191 26.8114 37.3943V39.4087H22.1547V37.3895C22.1547 36.6152 21.6334 35.9383 20.887 35.7433C19.6333 35.4156 18.4301 34.9167 17.3109 34.2603C16.6444 33.8696 15.7966 33.9791 15.2487 34.5269L13.8195 35.9561L10.5268 32.6634L11.956 31.2341C12.5037 30.6864 12.6134 29.8384 12.2225 29.1718C11.5662 28.0528 11.0672 26.8497 10.7396 25.5957C10.5444 24.8494 9.86738 24.3282 9.09333 24.3282H7.07427V19.6714H9.08864C9.86384 19.6714 10.541 19.1494 10.7355 18.4017C11.0618 17.1461 11.5602 15.9408 12.2163 14.8198C12.6064 14.1536 12.4966 13.3062 11.9492 12.7587L10.5269 11.3364L13.8196 8.04361L15.2368 9.46078C15.7848 10.0088 16.6334 10.1185 17.3001 9.72658C18.422 9.06711 19.629 8.56612 20.8871 8.23739C21.6335 8.04246 22.1547 7.36549 22.1547 6.59124V4.59121H26.8114V6.58656C26.8114 7.36176 27.3335 8.03892 28.0811 8.23337C29.3409 8.56086 30.5499 9.06127 31.6741 9.72065C32.3406 10.1114 33.1884 10.0017 33.7362 9.45408L35.1465 8.0438L38.4393 11.3366L37.029 12.7468C36.4812 13.2946 36.3716 14.1426 36.7624 14.809C37.4219 15.9333 37.9222 17.1422 38.2498 18.402C38.4441 19.1496 39.1213 19.6716 39.8965 19.6716H41.8918V24.3283Z" fill="#EF3C49"/>
<path d="M22.3426 18.0649H26.6275C27.2186 18.0649 27.6987 18.5068 27.6987 19.0486H29.8412C29.8412 17.4216 28.3991 16.0973 26.6275 16.0973H25.5563V15.1135H23.4139V16.0973H22.3426C20.571 16.0973 19.129 17.4216 19.129 19.0486V20.0324C19.129 21.6594 20.571 22.9837 22.3426 22.9837H26.6275C27.2186 22.9837 27.6987 23.4247 27.6987 23.9675V24.9513C27.6987 25.4941 27.2186 25.9351 26.6275 25.9351H22.3426C21.7516 25.9351 21.2714 25.4941 21.2714 24.9513H19.129C19.129 26.5783 20.571 27.9026 22.3426 27.9026H23.4139V28.8864H25.5563V27.9026H26.6275C28.3991 27.9026 29.8412 26.5783 29.8412 24.9513V23.9675C29.8412 22.3405 28.3991 21.0162 26.6275 21.0162H22.3426C21.7516 21.0162 21.2714 20.5742 21.2714 20.0324V19.0486C21.2714 18.5068 21.7516 18.0649 22.3426 18.0649Z" fill="#EF3C49"/>
<path d="M24.2544 33.4773C26.8419 33.4773 29.3696 32.5747 31.3715 30.9367L30.075 29.3547C28.439 30.6941 26.3707 31.4325 24.2544 31.4325C19.1802 31.4325 15.0526 27.3048 15.0526 22.2306C15.0526 20.1143 15.7909 18.046 17.1304 16.409L15.5483 15.1135C13.9103 17.1155 13.0077 19.6431 13.0077 22.2306C13.0077 28.4316 18.0534 33.4773 24.2544 33.4773Z" fill="#EF3C49"/>
<path d="M24.7157 12.5676C29.7899 12.5676 33.9176 16.6962 33.9176 21.7694C33.9176 23.8857 33.1792 25.954 31.8398 27.59L33.4218 28.8865C35.0598 26.8846 35.9624 24.357 35.9624 21.7694C35.9624 15.5685 30.9167 10.5227 24.7157 10.5227C22.1282 10.5227 19.6006 11.4243 17.5986 13.0623L18.8951 14.6454C20.5311 13.3059 22.5995 12.5676 24.7157 12.5676Z" fill="#EF3C49"/>
<path d="M45.3353 0C43.6622 0 42.2502 1.13674 41.8291 2.67825H37.6831C37.155 2.67825 36.7266 3.10654 36.7266 3.63479V4.59133C36.7266 5.11948 37.1549 5.54788 37.6831 5.54788C38.2113 5.54788 38.6397 5.11958 38.6397 4.59133H41.8292C42.2503 6.13284 43.6622 7.26958 45.3354 7.26958C47.3396 7.26958 48.9702 5.63903 48.9702 3.63479C48.9701 1.63055 47.3395 0 45.3353 0ZM45.3353 5.35649C44.3859 5.35649 43.6136 4.58406 43.6136 3.63479C43.6136 2.68551 44.386 1.91309 45.3353 1.91309C46.2847 1.91309 47.057 2.68551 47.057 3.63479C47.057 4.58406 46.2847 5.35649 45.3353 5.35649Z" fill="#EF3C49"/>
<path d="M11.2869 38.4203C10.7588 38.4203 10.3304 38.8486 10.3304 39.3769V39.4087H7.14094C6.71991 37.8672 5.308 36.7305 3.63479 36.7305C1.63055 36.7305 0 38.361 0 40.3653C0 42.3695 1.63055 44 3.63479 44C5.3079 44 6.71981 42.8633 7.14094 41.3218H11.2869C11.8151 41.3218 12.2435 40.8935 12.2435 40.3653V39.3769C12.2435 38.8487 11.8152 38.4203 11.2869 38.4203ZM3.63479 42.087C2.68542 42.087 1.91309 41.3145 1.91309 40.3653C1.91309 39.4159 2.68551 38.6436 3.63479 38.6436C4.58406 38.6436 5.35649 39.416 5.35649 40.3653C5.35649 41.3146 4.58416 42.087 3.63479 42.087Z" fill="#EF3C49"/>
</svg>
