<svg width="64" height="48" viewBox="0 0 64 48" fill="none" xmlns="http://www.w3.org/2000/svg">
<path d="M61.8575 37.892H61.7884V32.2937C61.7884 18.3222 52.0276 6.21275 38.4714 3.21137C38.3994 2.489 38.0901 1.817 37.5762 1.28512C36.9586 0.645872 36.129 0.293747 35.24 0.293747H28.76C27.871 0.293747 27.0414 0.645872 26.4237 1.28512C25.91 1.817 25.6006 2.489 25.5286 3.21137C11.9724 6.21275 2.21163 18.3222 2.21163 32.2937V37.892H2.1425C0.961 37.892 0 38.8531 0 40.0345V41.4442C0 42.3771 0.590125 43.1967 1.46837 43.4839C9.796 46.2067 20.6391 47.7062 32 47.7062C43.3609 47.7062 54.204 46.2067 62.5316 43.4839C63.4099 43.1967 64 42.3771 64 41.4442V40.0345C64 38.8531 63.0389 37.892 61.8575 37.892ZM27.915 2.72575C28.1384 2.49462 28.4385 2.36712 28.76 2.36712H35.2399C35.5614 2.36712 35.8615 2.49437 36.0849 2.72575C36.3082 2.957 36.4252 3.26137 36.4141 3.58262L35.4609 31.2284C35.4389 31.8646 34.9231 32.363 34.2866 32.363H29.7135C29.077 32.363 28.5612 31.8646 28.5392 31.2285L27.586 3.58275C27.5748 3.26125 27.6916 2.957 27.915 2.72575ZM61.9266 41.4444C61.9266 41.4722 61.9145 41.5044 61.8874 41.5132C53.7621 44.1697 43.1479 45.6329 32 45.6329C20.8521 45.6329 10.2379 44.1697 2.11275 41.513C2.08563 41.5041 2.0735 41.4721 2.0735 41.4442V40.0345C2.0735 39.9964 2.1045 39.9654 2.14263 39.9654H41.9525C42.525 39.9654 42.9893 39.5012 42.9893 38.9286C42.9893 38.3561 42.5251 37.8919 41.9525 37.8919H4.28512V32.2937C4.28512 21.8744 10.1198 12.5687 18.9296 7.84725L21.1791 23.5946C21.2531 24.1117 21.6965 24.4849 22.2043 24.4849C22.253 24.4849 22.3024 24.4814 22.3521 24.4744C22.919 24.3934 23.3129 23.8682 23.2319 23.3015L20.8881 6.89425C22.3807 6.24075 23.946 5.71462 25.5715 5.32912L26.4671 31.3001C26.5278 33.0587 27.9538 34.4365 29.7136 34.4365H34.2868C36.0465 34.4365 37.4725 33.0587 37.5332 31.3001L38.4289 5.32925C40.0542 5.71487 41.6196 6.241 43.1123 6.89437L40.7685 23.3016C40.6876 23.8685 41.0815 24.3935 41.6483 24.4745C41.698 24.4815 41.7474 24.485 41.7961 24.485C42.3037 24.485 42.7472 24.1117 42.8213 23.5947L45.0708 7.84737C53.8806 12.5687 59.7152 21.8742 59.7152 32.2937V37.892H53.0109C52.4384 37.892 51.9741 38.3561 51.9741 38.9287C51.9741 39.5012 52.4383 39.9655 53.0109 39.9655H61.8577C61.8959 39.9655 61.9269 39.9965 61.9269 40.0346V41.4444H61.9266Z" fill="black"/>
</svg>
