<svg width="33" height="32" viewBox="0 0 33 32" fill="none" xmlns="http://www.w3.org/2000/svg">
<path fill-rule="evenodd" clip-rule="evenodd" d="M16.7501 0C7.94647 0 0.809753 6.94961 0.809753 15.5224C0.809753 24.0952 7.94647 31.0448 16.7501 31.0448C25.5536 31.0448 32.6904 24.0952 32.6904 15.5224C32.6904 6.94961 25.5536 0 16.7501 0ZM13.2453 7.29367C14.1521 7.25348 14.4419 7.24365 16.7508 7.24365H16.7481C19.0577 7.24365 19.3464 7.25348 20.2533 7.29367C21.1583 7.33403 21.7765 7.47356 22.3184 7.67828C22.8781 7.88956 23.351 8.17242 23.8239 8.63292C24.2968 9.09308 24.5873 9.55496 24.8052 10.0995C25.0141 10.6258 25.1576 11.2274 25.2001 12.1088C25.2409 12.9918 25.2515 13.274 25.2515 15.5223C25.2515 17.7707 25.2409 18.0522 25.2001 18.9352C25.1576 19.8162 25.0141 20.418 24.8052 20.9446C24.5873 21.4889 24.2968 21.9508 23.8239 22.4109C23.3516 22.8714 22.8779 23.155 22.319 23.3664C21.7781 23.5711 21.1596 23.7107 20.2545 23.751C19.3477 23.7912 19.0588 23.801 16.7497 23.801C14.441 23.801 14.1514 23.7912 13.2446 23.751C12.3397 23.7107 11.7217 23.5711 11.1808 23.3664C10.622 23.155 10.1477 22.8714 9.67534 22.4109C9.20262 21.9508 8.91214 21.4889 8.69482 20.9444C8.48476 20.418 8.34148 19.8164 8.29985 18.9351C8.25876 18.052 8.24849 17.7707 8.24849 15.5223C8.24849 13.274 8.25912 12.9917 8.29968 12.1086C8.34041 11.2276 8.48388 10.6258 8.69465 10.0993C8.9125 9.55496 9.20297 9.09308 9.67587 8.63292C10.1484 8.17259 10.6227 7.88974 11.1819 7.67828C11.7225 7.47356 12.3402 7.33403 13.2453 7.29367Z" fill="#EF3C49"/>
<path fill-rule="evenodd" clip-rule="evenodd" d="M15.9881 8.73547C16.1362 8.73524 16.2955 8.73531 16.4674 8.73539L16.7508 8.73547C19.0207 8.73547 19.2897 8.7434 20.1861 8.78307C21.015 8.81998 21.4649 8.95485 21.7646 9.06817C22.1613 9.21822 22.4442 9.39759 22.7415 9.68735C23.0391 9.9771 23.2233 10.2531 23.3777 10.6394C23.4941 10.9309 23.6328 11.369 23.6705 12.1761C23.7113 13.0488 23.7201 13.311 23.7201 15.5204C23.7201 17.7298 23.7113 17.9919 23.6705 18.8646C23.6326 19.6718 23.4941 20.1099 23.3777 20.4014C23.2236 20.7877 23.0391 21.0628 22.7415 21.3524C22.444 21.6421 22.1615 21.8215 21.7646 21.9716C21.4652 22.0854 21.015 22.2199 20.1861 22.2568C19.2899 22.2965 19.0207 22.3051 16.7508 22.3051C14.4807 22.3051 14.2116 22.2965 13.3154 22.2568C12.4865 22.2196 12.0366 22.0847 11.7368 21.9714C11.34 21.8213 11.0566 21.642 10.7591 21.3522C10.4615 21.0624 10.2773 20.7872 10.1229 20.4007C10.0065 20.1092 9.86784 19.6711 9.83011 18.8639C9.78937 17.9912 9.78123 17.7291 9.78123 15.5183C9.78123 13.3076 9.78937 13.0468 9.83011 12.1741C9.86801 11.3669 10.0065 10.9288 10.1229 10.637C10.277 10.2506 10.4615 9.97469 10.7591 9.68493C11.0566 9.39518 11.34 9.21581 11.7368 9.06541C12.0364 8.95158 12.4865 8.81705 13.3154 8.77997C14.0997 8.74547 14.4036 8.73512 15.9881 8.7334V8.73547ZM21.2888 10.1102C20.7256 10.1102 20.2686 10.5547 20.2686 11.1033C20.2686 11.6518 20.7256 12.0968 21.2888 12.0968C21.852 12.0968 22.309 11.6518 22.309 11.1033C22.309 10.5548 21.852 10.1099 21.2888 10.1099V10.1102ZM12.3849 15.5225C12.3849 13.1746 14.3397 11.2711 16.7507 11.271C19.1618 11.271 21.1161 13.1746 21.1161 15.5225C21.1161 17.8703 19.1619 19.773 16.7508 19.773C14.3398 19.773 12.3849 17.8703 12.3849 15.5225Z" fill="#EF3C49"/>
<path fill-rule="evenodd" clip-rule="evenodd" d="M16.7507 12.7632C18.3157 12.7632 19.5846 13.9986 19.5846 15.5227C19.5846 17.0467 18.3157 18.2823 16.7507 18.2823C15.1856 18.2823 13.9169 17.0467 13.9169 15.5227C13.9169 13.9986 15.1856 12.7632 16.7507 12.7632V12.7632Z" fill="#EF3C49"/>
</svg>
