<svg width="46" height="64" viewBox="0 0 46 64" fill="none" xmlns="http://www.w3.org/2000/svg">
<path d="M14.2861 15C14.9761 15 15.5361 14.4399 15.5361 13.75C15.5361 13.0601 14.9761 12.5 14.2861 12.5C13.5962 12.5 13.0361 13.0601 13.0361 13.75C13.0361 14.4399 13.5962 15 14.2861 15Z" fill="#EF3C49"/>
<path d="M45.5727 22.5361C45.5727 20.2324 44.3657 18.1299 42.4623 16.9487C42.7587 16.1914 42.9125 15.3813 42.9125 14.5537C42.9125 11.3286 40.5927 8.63085 37.4892 8.08299C36.9443 5.00585 34.2499 2.66113 31.019 2.66113C30.1909 2.66113 29.3808 2.81445 28.624 3.11083C27.4428 1.20703 25.3403 0 23.0361 0C20.7324 0 18.6294 1.20703 17.4487 3.11083C16.6914 2.81445 15.8818 2.66113 15.0537 2.66113C13.2954 2.66113 11.6435 3.34667 10.4033 4.5913C9.44188 5.55614 8.81737 6.76659 8.58983 8.08104C7.2705 8.31102 6.05565 8.93846 5.08837 9.90379C3.84472 11.1455 3.16015 12.7969 3.16015 14.5537C3.16015 15.3813 3.31347 16.1914 3.61035 16.9487C1.70703 18.1294 0.5 20.2324 0.5 22.5361C0.5 24.8408 1.70703 26.9438 3.61035 28.1245C3.31347 28.8823 3.16015 29.6914 3.16015 30.5185C3.16015 33.7499 5.50341 36.4443 8.58006 36.9902C8.91551 38.9072 10.0845 40.5742 11.7861 41.5449V62.7499C11.7861 63.2558 12.0908 63.7113 12.5576 63.9047C13.0249 64.098 13.5625 63.9911 13.9199 63.6337L23.0361 54.518L32.1523 63.6337C32.5102 63.9916 33.0473 64.098 33.5146 63.9047C33.9814 63.7113 34.2861 63.2558 34.2861 62.7499V41.5434C35.9853 40.5732 37.1459 38.9081 37.4711 36.9951C38.7914 36.767 40.0077 36.1415 40.977 35.1767C42.225 33.934 42.9125 32.2797 42.9125 30.5185C42.9125 29.6914 42.7587 28.8818 42.4623 28.1245C44.3657 26.9438 45.5727 24.8408 45.5727 22.5361ZM14.2861 42.3666C14.5395 42.3959 14.7954 42.4125 15.0537 42.4125C15.645 42.4125 16.226 42.3329 16.7861 42.1801V57.2323L14.2861 59.7323V42.3666ZM22.1523 51.8661L19.2861 54.7318V43.893C20.3593 44.6425 21.6587 45.0737 23.0361 45.0737C24.4057 45.0737 25.7075 44.6435 26.7861 43.8945V54.7323L23.9204 51.8661C23.4321 51.3778 22.6406 51.3778 22.1523 51.8661ZM29.2861 57.2318V42.1801C29.8466 42.3329 30.4282 42.4125 31.019 42.4125C31.2768 42.4125 31.5327 42.3959 31.7861 42.3661V59.7323L29.2861 57.2318ZM40.3495 26.3808C39.9848 26.5087 39.6996 26.7983 39.5776 27.1655C39.4555 27.5322 39.5102 27.935 39.7255 28.2563C40.1752 28.9262 40.4125 29.7084 40.4125 30.519C40.4125 31.6103 39.9868 32.6352 39.2133 33.4047C38.4438 34.1704 37.4238 34.5913 36.3388 34.5913C36.3305 34.5913 36.3227 34.5913 36.3139 34.5913C35.9814 34.5913 35.6625 34.7236 35.4277 34.9594C35.1918 35.1962 35.061 35.518 35.0639 35.8525C35.0786 37.5053 34.0966 38.9799 32.562 39.6098C32.5615 39.6098 32.5615 39.6098 32.5615 39.6098C32.0722 39.8105 31.5532 39.9125 31.019 39.9125C30.208 39.9125 29.4248 39.6752 28.7539 39.226C28.5761 39.1074 28.373 39.0395 28.165 39.0219C28.164 39.0214 28.163 39.0214 28.1621 39.0214C28.1293 39.0185 28.0966 39.0165 28.0639 39.0165C28.0546 39.016 28.0459 39.0151 28.0366 39.0151C27.4282 39.0151 26.9218 39.4496 26.81 40.0253C26.1928 41.5546 24.6953 42.5737 23.0366 42.5737C21.3183 42.5737 19.7959 41.4975 19.2334 39.893C19.1884 39.7431 19.1162 39.6059 19.0219 39.4858C19.0215 39.4853 19.021 39.4843 19.02 39.4833C18.9951 39.4516 18.9692 39.4213 18.9414 39.3925C18.9375 39.3886 18.9341 39.3842 18.9306 39.3803C18.9067 39.3559 18.8813 39.3329 18.8554 39.311C18.8476 39.3041 18.8403 39.2963 18.832 39.2895C18.8242 39.2831 18.8154 39.2773 18.8071 39.2709C18.6767 39.1679 18.5263 39.0898 18.3623 39.0453C18.0107 38.9496 17.6352 39.0121 17.3335 39.2158C16.6601 39.6718 15.8716 39.9125 15.0537 39.9125C14.5185 39.9125 13.999 39.811 13.5102 39.6108C11.9721 38.9804 10.9795 37.5014 10.9814 35.8427C10.9819 35.5112 10.8501 35.1928 10.6157 34.958C10.3813 34.7231 10.063 34.5913 9.73143 34.5913C7.48632 34.5913 5.66015 32.7646 5.66015 30.519C5.66015 29.7089 5.89794 28.9262 6.34716 28.2563C6.56249 27.935 6.61718 27.5322 6.49511 27.1655C6.37304 26.7983 6.08788 26.5087 5.72314 26.3808C4.09472 25.809 3.00048 24.2641 3.00048 22.5361C3.00048 20.809 4.09423 19.2646 5.72314 18.6933C6.08788 18.5654 6.37304 18.2754 6.49511 17.9087C6.61718 17.5415 6.56249 17.1386 6.34716 16.8174C5.89794 16.1474 5.66015 15.3647 5.66015 14.5537C5.66015 13.4653 6.08446 12.4424 6.85497 11.6733C7.6245 10.9053 8.64647 10.4824 9.73338 10.4824H9.74266C10.0747 10.4824 10.3931 10.3506 10.6274 10.1157C10.8623 9.88035 10.9941 9.56102 10.9927 9.22801C10.9892 8.14403 11.4087 7.12401 12.1738 6.35595C12.9419 5.58544 13.9648 5.16112 15.0537 5.16112C15.8662 5.16112 16.6489 5.39794 17.3178 5.84667C17.6386 6.062 18.0415 6.11669 18.4087 5.99462C18.7758 5.87255 19.0654 5.58739 19.1933 5.22265C19.7651 3.59423 21.309 2.5 23.0361 2.5C24.7631 2.5 26.3076 3.59423 26.8794 5.22265C27.0073 5.58739 27.2973 5.87255 27.664 5.99462C28.0312 6.11669 28.4335 6.062 28.7548 5.84667C29.4238 5.39843 30.2065 5.16112 31.019 5.16112C33.2636 5.16112 35.0898 6.98778 35.0898 9.23241C35.0898 9.92284 35.6498 10.4824 36.3398 10.4824C38.6015 10.4824 40.4125 12.3095 40.4125 14.5537C40.4125 15.3642 40.1747 16.1474 39.7255 16.8174C39.5102 17.1386 39.4555 17.5415 39.5776 17.9087C39.6996 18.2754 39.9848 18.5649 40.3495 18.6933C41.9784 19.2646 43.0722 20.809 43.0722 22.5361C43.0727 24.2641 41.9784 25.809 40.3495 26.3808Z" fill="#EF3C49"/>
<path d="M23.0361 8.75C21.2724 8.75 19.5522 9.08057 17.9233 9.73193C17.2822 9.98828 16.9707 10.7158 17.227 11.3564C17.4834 11.9976 18.2109 12.3091 18.8515 12.0532C20.1841 11.52 21.5918 11.25 23.0361 11.25C29.2397 11.25 34.2861 16.2969 34.2861 22.5C34.2861 28.7031 29.2397 33.75 23.0361 33.75C16.833 33.75 11.7861 28.7031 11.7861 22.5C11.7861 21.0556 12.0566 19.6479 12.5893 18.3154C12.8457 17.6743 12.5342 16.9468 11.8931 16.6904C11.2519 16.4346 10.5249 16.7456 10.2681 17.3867C9.6167 19.0161 9.28613 20.7363 9.28613 22.5C9.28613 30.0815 15.4546 36.25 23.0361 36.25C30.6181 36.25 36.7861 30.0815 36.7861 22.5C36.7861 14.9184 30.6181 8.75 23.0361 8.75Z" fill="#EF3C49"/>
<path d="M29.2861 22.5C29.2861 23.1904 29.8462 23.75 30.5361 23.75C31.2265 23.75 31.7861 23.1904 31.7861 22.5C31.7861 17.6753 27.8608 13.75 23.0361 13.75C22.3462 13.75 21.7861 14.3096 21.7861 15C21.7861 15.6904 22.3462 16.25 23.0361 16.25C26.4824 16.25 29.2861 19.0537 29.2861 22.5Z" fill="#EF3C49"/>
</svg>
