<svg width="32" height="30" viewBox="0 0 32 30" fill="none" xmlns="http://www.w3.org/2000/svg">
<path fill-rule="evenodd" clip-rule="evenodd" d="M15.75 0C24.2573 0 31.1538 6.71573 31.1538 15C31.1538 23.2843 24.2573 30 15.75 30C7.24267 30 0.34613 23.2843 0.34613 15C0.34613 6.71573 7.24267 0 15.75 0ZM16.6724 6.11031C17.7198 6.2376 18.5663 6.48331 19.4949 6.92442C20.4083 7.35962 20.9929 7.77111 21.7663 8.52008C22.4909 9.22763 22.8929 9.76348 23.3191 10.5953C23.9129 11.7558 24.2508 13.1354 24.3086 14.6541C24.33 15.1721 24.3148 15.2876 24.1929 15.4356C23.9616 15.7228 23.4531 15.6754 23.2795 15.3528C23.2247 15.2462 23.2095 15.1544 23.1912 14.7399C23.1608 14.1034 23.1151 13.692 23.0238 13.2005C22.6645 11.2733 21.7145 9.73387 20.1982 8.62962C18.9347 7.70598 17.6285 7.25598 15.9174 7.15829C15.3389 7.12573 15.2384 7.10503 15.1075 7.00732C14.8639 6.82081 14.8517 6.38268 15.0861 6.17841C15.2292 6.05109 15.3297 6.03334 15.826 6.04814C16.0848 6.05702 16.4654 6.08662 16.6724 6.11031ZM9.71221 6.42959C9.8188 6.46511 9.98321 6.54798 10.0776 6.6072C10.6561 6.98023 12.2668 8.98441 12.7935 9.98506C13.0949 10.5564 13.1954 10.9797 13.101 11.2936C13.0036 11.631 12.8422 11.8087 12.1206 12.3741C11.8314 12.6021 11.5604 12.8359 11.5178 12.8981C11.4081 13.0521 11.3198 13.354 11.3198 13.5672C11.3229 14.0616 11.6517 14.9586 12.0841 15.6484C12.419 16.1842 13.0188 16.871 13.6125 17.398C14.3098 18.0197 14.9248 18.443 15.619 18.7775C16.5111 19.2097 17.0561 19.3193 17.455 19.1387C17.5555 19.0943 17.662 19.0351 17.6955 19.0085C17.7259 18.9818 17.9604 18.7035 18.2162 18.3957C18.7094 17.7917 18.8221 17.694 19.16 17.5815C19.5894 17.4394 20.0278 17.4779 20.4693 17.697C20.8042 17.8657 21.5349 18.3068 22.0069 18.6265C22.628 19.0499 23.9555 20.1038 24.1352 20.314C24.4518 20.6929 24.5066 21.1784 24.2934 21.7143C24.0681 22.2797 23.1913 23.3396 22.5793 23.7925C22.0251 24.2011 21.6324 24.3579 21.1148 24.3816C20.6885 24.4023 20.5119 24.3668 19.9669 24.1477C15.6921 22.4336 12.2789 19.8759 9.56909 16.3618C8.15332 14.5264 7.07546 12.6228 6.33861 10.6482C5.90933 9.4966 5.88804 8.99628 6.24118 8.40716C6.39345 8.1585 7.04197 7.54271 7.5139 7.19932C8.29947 6.6309 8.66177 6.4207 8.95103 6.36151C9.14892 6.32005 9.49296 6.35261 9.71221 6.42959ZM16.8826 8.25621C18.7308 8.51967 20.1618 9.35453 21.0996 10.7104C21.6264 11.4742 21.9552 12.3712 22.0678 13.3333C22.1074 13.6856 22.1074 14.328 22.0648 14.4346C22.0252 14.5353 21.8973 14.6715 21.7877 14.7277C21.669 14.7869 21.4163 14.781 21.2762 14.7099C21.0417 14.5945 20.9717 14.4109 20.9717 13.9136C20.9717 13.1468 20.7677 12.3386 20.4146 11.711C20.0126 10.9946 19.4281 10.4025 18.7156 9.991C18.1036 9.63575 17.1993 9.37229 16.3742 9.30717C16.0758 9.28346 15.9114 9.22426 15.7987 9.09697C15.6252 8.90453 15.6069 8.64401 15.753 8.42792C15.9114 8.18812 16.1549 8.14963 16.8826 8.25621ZM17.5311 10.4915C18.1309 10.6158 18.5907 10.8379 18.9835 11.1961C19.4889 11.6608 19.766 12.2233 19.8878 13.0315C19.97 13.5585 19.9365 13.7657 19.7446 13.9374C19.565 14.0973 19.2332 14.1032 19.0322 13.9522C18.886 13.8456 18.8404 13.7332 18.8069 13.4283C18.7673 13.0227 18.6942 12.7385 18.5694 12.475C18.3015 11.9155 17.8295 11.6253 17.0318 11.5306C16.6573 11.4862 16.5446 11.4447 16.4229 11.3056C16.2006 11.0481 16.2858 10.6306 16.5933 10.4767C16.7091 10.4204 16.7578 10.4145 17.0135 10.4293C17.1719 10.4382 17.4063 10.4648 17.5311 10.4915Z" fill="#EF3C49"/>
</svg>
