<svg width="32" height="30" viewBox="0 0 32 30" fill="none" xmlns="http://www.w3.org/2000/svg">
<path fill-rule="evenodd" clip-rule="evenodd" d="M31.5 15C31.5 23.2843 24.6035 30 16.0962 30C7.58884 30 0.692307 23.2843 0.692307 15C0.692307 6.71573 7.58884 0 16.0962 0C24.6035 0 31.5 6.71573 31.5 15ZM16.6001 23.3453H16.6039C21.6541 23.3433 25.7615 19.3427 25.7635 14.4259C25.7645 12.0427 24.8126 9.80176 23.0833 8.11588C21.3539 6.42992 19.0541 5.50103 16.6038 5.5C11.5552 5.5 7.44616 9.50106 7.44415 14.4189C7.44346 15.9909 7.86524 17.5253 8.66681 18.878L7.36735 23.5L12.223 22.2597C13.5609 22.9703 15.0672 23.3448 16.6001 23.3453Z" fill="#EF3C49"/>
<path fill-rule="evenodd" clip-rule="evenodd" d="M12.7259 20.8059L12.4479 20.6452L9.56652 21.3813L10.3356 18.6456L10.1546 18.3651C9.39251 17.1848 8.99001 15.8205 8.9906 14.4197C8.99227 10.3323 12.4075 7.00684 16.6069 7.00684C18.6403 7.00752 20.5518 7.77962 21.9892 9.18093C23.4266 10.5822 24.2177 12.4448 24.2169 14.4257C24.2152 18.5135 20.8 21.8393 16.6039 21.8393H16.6008C15.2347 21.8388 13.8948 21.4814 12.7259 20.8059ZM20.9049 16.3462C21.0646 16.4214 21.1724 16.4721 21.2184 16.5469C21.2756 16.6398 21.2756 17.0861 21.085 17.6067C20.8942 18.1273 19.9798 18.6025 19.5401 18.6664C19.1458 18.7238 18.6468 18.7478 18.0986 18.5781C17.7662 18.4754 17.3399 18.3383 16.7939 18.1086C14.6483 17.2065 13.1983 15.1815 12.9242 14.7987C12.905 14.7719 12.8916 14.7532 12.8841 14.7434L12.8823 14.741C12.7612 14.5837 11.9496 13.5292 11.9496 12.4379C11.9496 11.4114 12.4675 10.8733 12.7058 10.6256C12.7222 10.6086 12.7372 10.593 12.7506 10.5787C12.9604 10.3556 13.2084 10.2998 13.3609 10.2998C13.5135 10.2998 13.6662 10.3012 13.7996 10.3077C13.816 10.3085 13.8331 10.3084 13.8508 10.3083C13.9842 10.3075 14.1505 10.3066 14.3145 10.6903C14.3776 10.8379 14.47 11.0568 14.5673 11.2877C14.7643 11.7546 14.9819 12.2704 15.0202 12.3451C15.0774 12.4566 15.1155 12.5867 15.0392 12.7356C15.0278 12.7579 15.0172 12.7789 15.0071 12.799C14.9498 12.913 14.9076 12.9967 14.8104 13.1073C14.7721 13.1508 14.7326 13.1977 14.6931 13.2445C14.6144 13.3379 14.5356 13.4313 14.4671 13.4978C14.3525 13.6089 14.2332 13.7295 14.3667 13.9526C14.5002 14.1757 14.9596 14.9055 15.6399 15.4965C16.3713 16.1318 17.007 16.4003 17.3292 16.5364C17.3921 16.5629 17.4431 16.5845 17.4805 16.6027C17.7092 16.7143 17.8427 16.6956 17.9763 16.5469C18.1098 16.3982 18.5484 15.8961 18.7009 15.673C18.8535 15.45 19.0061 15.4871 19.2159 15.5615C19.4257 15.6359 20.5509 16.175 20.7798 16.2866C20.8245 16.3084 20.8662 16.328 20.9049 16.3462Z" fill="#EF3C49"/>
</svg>
